/* XPM */
static char *_3b9dffea150429ce3cf3ee934e55de5uYaQz9DhVyrKMtmG[] = {
/* columns rows colors chars-per-pixel */
"64 64 256 2 ",
"   c #47704C",
".  c #070A0E",
"X  c #0B0D12",
"o  c #06090E",
"O  c #04050D",
"+  c #0C0B0E",
"@  c #1F2A32",
"#  c #27160B",
"$  c #00040D",
"%  c #0D0E14",
"&  c #06080B",
"*  c #0B0F18",
"=  c None",
"-  c #1D1311",
";  c #050609",
":  c #03060A",
">  c #04070B",
",  c #3F3931",
"<  c #5D606A",
"1  c #0E0D0E",
"2  c #05080C",
"3  c #0D0F11",
"4  c #090A0E",
"5  c #91734A",
"6  c #08090B",
"7  c #252321",
"8  c #9B5F21",
"9  c #030508",
"0  c #5C452C",
"q  c #D8B88D",
"w  c #03060A",
"e  c #110B0A",
"r  c #060A0F",
"t  c #121418",
"y  c #372B22",
"u  c #121316",
"i  c #ECA345",
"p  c #3F4044",
"a  c #B2864E",
"s  c #AF7E3F",
"d  c #080C11",
"f  c #494547",
"g  c #878C93",
"h  c #00050F",
"j  c #24140A",
"k  c #211309",
"l  c #FAD57C",
"z  c #FBCD74",
"x  c #33291A",
"c  c #847057",
"v  c #727375",
"b  c #22201C",
"n  c #BE8841",
"m  c #CC913F",
"M  c #5A442A",
"N  c #AB8244",
"B  c #B97E38",
"V  c #24201D",
"C  c #59462D",
"Z  c #45260F",
"A  c #532C11",
"S  c #21262F",
"D  c #777A7B",
"F  c #6B5A44",
"G  c #633317",
"H  c #9A6931",
"J  c #2F2724",
"K  c #1C1412",
"L  c #52311E",
"P  c #53565A",
"I  c #1D1411",
"U  c #2A2C32",
"Y  c #55575A",
"T  c #33363C",
"R  c #5E3814",
"E  c #1F1C1C",
"W  c #02080E",
"Q  c #3F4245",
"!  c #2D3035",
"~  c #93571E",
"^  c #1B2129",
"/  c #78572E",
"(  c #201209",
")  c #3B2723",
"_  c #D7A458",
"`  c #D9A75D",
"'  c #F0BD6E",
"]  c #989DA7",
"[  c #EABB71",
"{  c #402714",
"}  c #9C6120",
"|  c #DCBC91",
" . c #5E5343",
".. c #50545A",
"X. c #CD944C",
"o. c #5F6267",
"O. c #261C15",
"+. c #6B5A40",
"@. c #9FAC0F",
"#. c #94F001",
"$. c #97011C",
"%. c #014808",
"&. c #8C2611",
"*. c #010101",
"=. c #8C411B",
"-. c #552608",
";. c #723811",
":. c #FBD39F",
">. c white",
",. c #372613",
"<. c #F8D09C",
"1. c #703810",
"2. c #313236",
"3. c #424449",
"4. c #53555A",
"5. c #222324",
"6. c #A6512A",
"7. c #101114",
"8. c #131314",
"9. c #1F0F07",
"0. c #1E1E20",
"q. c #D18F4C",
"w. c #0C0C0C",
"e. c #363638",
"r. c #2E1609",
"t. c #040404",
"y. c #090809",
"u. c #A75229",
"i. c #D39250",
"p. c #B9694E",
"a. c #818283",
"s. c #252629",
"d. c #686868",
"f. c #C38E7A",
"g. c #BEA37F",
"h. c #47484F",
"j. c #DCA86D",
"k. c #393A3C",
"l. c #BEBDBD",
"z. c #97563E",
"x. c #A24F2D",
"c. c #4E4E50",
"v. c #FCD5A3",
"b. c #3B3D46",
"n. c #161719",
"m. c #ABACAD",
"M. c #9E9FA1",
"N. c #2E2F31",
"B. c #5A320F",
"V. c #909091",
"C. c #5F2C0F",
"Z. c #E0BE92",
"A. c #100504",
"S. c #939597",
"D. c #FDD5A0",
"F. c #727272",
"G. c #2E2821",
"H. c #5D5141",
"J. c #7E7D7B",
"K. c #2B2B2C",
"L. c #260F07",
"P. c #AC6144",
"I. c #4D4034",
"U. c #424140",
"Y. c gray97",
"T. c #595962",
"R. c #EEC999",
"E. c #D0B188",
"W. c #2E1F10",
"Q. c #3E2B21",
"!. c #545555",
"~. c #422210",
"^. c #5D5D5C",
"/. c #1F1612",
"(. c #7B6854",
"). c #B5B3B2",
"_. c #B1654B",
"`. c #4D220A",
"'. c #190804",
"]. c #A44E2C",
"[. c #E8C495",
"{. c #3C4AA3",
"}. c #EAB676",
"|. c #49549B",
" X c #E9DEDC",
".X c #A7A6A6",
"XX c #44372B",
"oX c #CE852F",
"OX c #4F311A",
"+X c #7E5325",
"@X c #E5A95F",
"#X c #694320",
"$X c #6D3518",
"%X c #BBC7EB",
"&X c #6E5E4C",
"*X c #A65923",
"=X c #E5D8D4",
"-X c #8B8B8B",
";X c #DDD5D4",
":X c #898887",
">X c #F5D09F",
",X c #CAA87D",
"<X c #6C523D",
"1X c #8D4B2D",
"2X c #8B4617",
"3X c #371A09",
"4X c #C68D74",
"5X c #754018",
"6X c #C9AB85",
"7X c #98989A",
"8X c #F8CD96",
"9X c #B0ADAC",
"0X c #F2C48A",
"qX c #CDC9C9",
"wX c #AA7031",
"eX c #F4C991",
"rX c #342E26",
"tX c #80858D",
"yX c #80472F",
"uX c #59372A",
"iX c #A05A41",
"pX c #BFB6B4",
"aX c #1B0D05",
"sX c #8A5C2F",
"dX c #D79442",
"fX c #937250",
"gX c #967F61",
"hX c #DD9C50",
"jX c #354488",
"kX c #45497B",
"lX c #555E67",
"zX c #8F5138",
"xX c #AE6A4A",
"cX c #653A29",
"vX c #F7AA42",
"bX c #785D43",
"nX c #CF8D53",
"mX c #D7A166",
"MX c #F9F6EE",
"NX c #DAAD78",
"BX c #E3B986",
"VX c #EEEFF0",
"CX c #A58C6F",
"ZX c #FDCA85",
"AX c #AE9773",
"SX c #A06C2A",
"DX c #A0B5DA",
"FX c #2A334B",
"GX c #BC8D57",
"HX c #A2593B",
"JX c #D59A56",
"KX c #B69A76",
"LX c #86A1E2",
"PX c #BD834A",
"IX c #B0B9D5",
"UX c #47704C",
/* pixels */
"                                                                                                                                ",
"                                                                                                                                ",
"                                                                                                                                ",
"                                                                                                                                ",
"                                                    % % % % % % % % @                                                           ",
"                                                  + t - - - - - - I u                                                           ",
"                                                + 4 yXiXz.z.z.z.z.z.) o o o +                                                   ",
"                                              h 1 uXz.P.p.p.p.p.p._.uXQ.Q.Q.J % @                                               ",
"                                            @ > /.iXp.p.p._._._._._.p.p.p.p.L 4 +                                               ",
"                                          , > K zXP.P.P.iX5X$X$X$X$X1XP.P.P.z.W.4 u                                             ",
"                                          ; y yXP.5XC.C.C.-.-.-.-.-.C.C.C.B.1Xz.cXe X                                           ",
"                                        : 1 cXHX1XC.-.-.-.-.-.-.-.-.-.-.-.-.$X1XzXQ.3 %                                         ",
"                                        3 uXxXyX-.-.-.-.-.-.-.-.-.-.-.-.-.-.-.-.z.xXy &                                         ",
"                                      r D J.OXC.-.r.L.L.`.-.-.-.-.-.`.r.L.L.r.`.`.~.J.D +                                       ",
"                                      ; V.-XA.r.3X'.A.A.L.r.r.r.r.r.r.A.A.A.'.~.L.t.M.J.&                                       ",
"                                      ; -X:X*.A.L.'.L.B.B.B.B.B.B.B.B.B.3X'.'.3XaX*.M.= &                                       ",
"                                      ; -X:X*.9.`.~.wXmXj.j.j.j.j.j.j.j.GX8 ~.3XaX*.M.v &                                       ",
"                                      w V.-X*.9.`.OX}.<.:.:.:.:.:.:.>X:.8X}.XXA.A.t..Xv &                                       ",
"                                  * w 2 3.U.*.9.G bXR.<.<.<.<.>X<.<.<.<.>XR.bXOXr.t.c.e.1 W %                                   ",
"                                  : Q = d.d.w.'.sX8X:.:.:.:.<.<.<.<.:.:.:.<.0Xi.OXw.d.d.F.p +                                   ",
"                                  : Y .XS.V.w.XXNX6Xg.g.g.g.Z.<.<.q g.g.g.g.,X0X<X8.S.V.M.P +                                   ",
"                                  : Y M.S.7Xw.I.E.XXy.w.w.w.c [.[.&Xy.w.w.y.G.6XH.8.M.S.M.P +                                   ",
"                                  : 6 7.2.k.t.w./.y.*.*.*.*./.G.G.8.*.*.*.*.t.8.y.y.k.N.w.6 +                                   ",
"                                  : 6 y.N.e.t.0.H.n.*.*.*.*.G.H.H.G.*.*.*.t./.H.G.t.e.K.y.6 +                                   ",
"                                  O 3 . K.2.*.I.[.rX*.*.*.*.(.v.v.(.*.*.*.*.Q.>X&X*.e.N.3 . 9                                   ",
"                                  @ @ ; 0.0.*.I.Z.rX*.*.*.*.(.v.v.(.*.*.*.*.G.[.(.*.5.0.; , @                                   ",
"                                      + o d *.I.R.CXXX*.*.G.,X:.:.E.I.y.t.G.CXR.c *.4 o X                                       ",
"                                          ; *.XXj.ZX,XgXgXKX:.:.:.D.E.AXAXg.ZX@X<X*.2                                           ",
"                                          X 2 O.+XhX:.v.D.>XZ.Z.Z.Z.>XD.D.D.@X~ # 1 w                                           ",
"                          , l l l             W r.wX0XeX:.Z.I.rXrXXXq :.eX0XPX~.2             z z z 5 @                         ",
"                        * C m _ ' a M M O *   U s.OXoXhX8XR.6Xg.g.g.R.:.@XoX#X0.T   * + 0 0 0 [ ` s / 9                         ",
"                        * E x F [.| s } L w   E ! f R dX<.:.v.v.v.v.:.:.@X5Xk.h.. % u # 8 B q R.c x U %                         ",
"                              J &X[.eXJX8 { d Q a.< /.+XgXmX:.v.v.8XmXfX<XW.3.g o.4 O.~ q.eX>X(.x @                             ",
"                              9 7 q D.}.oX5XI.= S.= e.t.aX8 E.E.E.,X*Xr.*.K.= g tXH.#XoX}.:.R.I.w                               ",
"                              % 3 H.Z.D.}.oX8 4.< tXg p t.W.#X#X#X#X~.t.e.g tX< T.+XoX@X:.>X&Xb O                               ",
"                                : K 6XD.:.}.8 f p ..] v w.H.j.BXNXhXfXn.c.M.T.U.h.+X@X:.D.Z.y 2 @                               ",
"                                , r  .E.Z.BXfXb.! k.p p n.a.MX>.Y.MX9Xs.2.b.e.s.b.<X,XE.E.F & %                                 ",
"                                    X C y U.e.2.n.7.n.e.n.a.Y.>.>.>.m.s.N.0.n.y.e.s.U.V T u ,                                   ",
"                                      5 b c.2.0.s.y.5.b.n.a.Y.>.>.>.m.s.2.k.w.s.K.5.T.7 0                                       ",
"                                      5 b 4.2.5.4.n.3.h.n.a.Y.>.>.>.m.s.2.4.8.c.k.0.T.7 0                                       ",
"                                      % - 4.2.5.4.n.3.3.8.a.Y.>.>.>.m.5.2.4.8.h.k.0.T.7 +                                       ",
"                                      % I 4.2.5.4.n.3.h.8.a.Y.>.>.>.m.5.2.4.8.h.e.0.T.7 +                                       ",
"                                      * I 4.2.5.4.n.3.h.8.a.Y.>.>.>.m.5.2.4.8.h.e.0.T.7 +                                       ",
"                    r o o o o o o o o o 6 N.0.n.3.8.3.3.8.J.Y.>.>.>..X5.N.4.7.b.0.7.s.8.t d 2 . . . . . . &                     ",
"                , 5 1 w.!.c.7.7.8.7.w.0.d.K.*.t.c.c.d.d.U.S.;XVX;XVXl.= -X:XF.^.y.*.e.= s.w.7.8.7.y.c.^.y.1 M @                 ",
"              @ N s V d.d.&XkX|.|.|.kXI.k.^.3.*.7XS.F.V.h.m.k.l.k.M.:Xk.l.U.S.V.*.!.F.H.f jX|.|.|.kX<Xc.^.V s N                 ",
"              * m SXU.-X/.(.IX%X%X%XDXh.7.4.= t.m.= d.a.k..X5.l.K.V.F.7.).s.= M.t.V.c.,.^.DX%X%X%XLXT.w.a.U.wXm *               ",
"            @ a B OX5.J.J.b.{.{.{.|.jXFX^.J.2.y.).d.F.a.U..X5.l.K.V.F.8.l.K.d.).y.k.a.F.b.jX{.{.{.{.FX^.J.s.OXB N               ",
"            5 n SXF.S.N.!.!.T.< < < b.4.3.F.:XN.).!.a.a.!.9XK.l.k.7XJ.5.l.f !.pXc.S.4.4.!.b.< < < h.U.^.e.V.d.wXX.,             ",
"            a i +X2.3.7.*.*.t.t.*.*.*.*.t.b.k.0..X9Xl.l.l.qX).qX9XqXl..XqX).)..Xs.3.s.*.*.*.*.*.t.*.*.*.7.h.2.sXi a             ",
"          , n vX+XW.W.,.,.,.,.,.,.,.,.,.,.,.W.Q.pX X=X=X X;X X=X=X X=X;X X;X XpXQ.,.,.,.,.,.,.,.,.,.,.,.,.W.W.sXvXn *           ",
"          X H i dXq.q.q.q.i.i.i.i.i.i.q.q.q.q.nX4Xf.4X4Xf.4Xf.f.f.f.f.f.f.f.f.4XnXq.q.q.q.q.i.i.i.i.i.i.i.q.q.dXi H X           ",
"          & R *X*Xu.6.6.6.6.6.u.u.u.6.6.6.6.6.6.6.].x.].].x.x.x.x.x.x.x.x.x.].].6.6.u.u.u.u.6.6.6.6.6.6.6.u.u.*X*XG &           ",
"          & A 2X2X=.=.=.=.=.=.=.=.=.=.=.=.=.=.=.=.=.=.=.=.=.=.=.=.=.=.=.=.=.=.=.=.=.=.=.=.=.=.=.=.=.=.=.=.=.=.=.2XA r           ",
"          & Z 1.1.;.;.;.;.;.;.;.1.1.1.1.1.1.1.;.;.;.1.1.;.;.;.;.;.;.;.;.;.;.;.1.1.1.1.1.1.1.1.1.1.1.1.;.;.;.;.;.;.Z r           ",
"          X e j k 9.9.9.9.9.9.k # # # # # # # # # # # # # # # # # # # # # # # # # # # # # # # # k 9.9.9.9.9.9.( j e X           ",
"          * O $ . *.*.*.*.*.*.. $ O O O $ $ $ $ O O $ $ $ $ O O O O $ $ $ $ $ $ $ $ $ $ O O O $ . *.*.*.*.*.*.. O O *           ",
"                3 *.*.*.*.*.*.>                                                                 > *.*.*.*.*.*.>                 ",
"                X 4 . ; ; 1 e +                                                                 + t 5.N.N.5.6 X                 ",
"                  o X     & 2 @                                                                   o 3.lXlX3.d *                 ",
"                  % *     % $                                                                     : t S S ^ X                   ",
"                                                                                                  @ % $ $ h @                   ",
"                                                                                                                                ",
"                                                                                                                                "
};
