/* XPM */
static char *_854ef28c118451ecf322b4650c422ec2dMKtf4jbHxcMhr0[] = {
/* columns rows colors chars-per-pixel */
"64 64 256 2 ",
"   c #47704C",
".  c #030A17",
"X  c #080B10",
"o  c #05070B",
"O  c #05070C",
"+  c #06090F",
"@  c #2C2F33",
"#  c #00040D",
"$  c #26150B",
"%  c #05080D",
"&  c None",
"*  c #020308",
"=  c #424544",
"-  c #1D252F",
";  c #1E1312",
":  c #5D606A",
">  c #2D2F30",
",  c #0F1015",
"<  c #282421",
"1  c #06080A",
"2  c #040609",
"3  c #05080D",
"4  c #0B0D11",
"5  c #0C0E12",
"6  c #060A11",
"7  c #3A2F25",
"8  c #404244",
"9  c #B08447",
"0  c #25150B",
"q  c #0E0A0A",
"w  c #100E0E",
"e  c #462812",
"r  c #464A54",
"t  c #09090D",
"y  c #0D0C0E",
"u  c #21140A",
"i  c #060B13",
"p  c #ECA345",
"a  c #0B0C13",
"s  c #04090E",
"d  c #070B13",
"f  c #47484A",
"g  c #522C11",
"h  c #603614",
"j  c #1D242F",
"k  c #07080A",
"l  c #08090B",
"z  c #151B23",
"x  c #3C3E42",
"c  c #4B311A",
"v  c #24150B",
"b  c #21140E",
"n  c #777A7B",
"m  c #9A6931",
"M  c #1D2228",
"N  c #717276",
"B  c #53565A",
"V  c #382A25",
"C  c #271B17",
"Z  c #23150C",
"A  c #050A10",
"S  c #55575A",
"D  c #484C4F",
"F  c #868A92",
"G  c #36393F",
"H  c #202734",
"J  c #C28C46",
"K  c #A77737",
"L  c #BA7E35",
"P  c #D1933B",
"I  c #51322A",
"U  c #4D4D51",
"Y  c #201311",
"T  c #38241C",
"R  c #3A322C",
"E  c #7B6546",
"W  c #C1873E",
"Q  c #989DA7",
"!  c #412B19",
"~  c #C48F46",
"^  c #4A2E16",
"/  c #273D56",
"(  c #442B15",
")  c #2A394F",
"_  c #231E1C",
"`  c #000209",
"'  c #022512",
"]  c black",
"[  c #020202",
"{  c #542508",
"}  c #723812",
"|  c #FDD6A3",
" . c white",
".. c #FBD29E",
"X. c #8C411B",
"o. c #F8D09C",
"O. c #382613",
"+. c #703810",
"@. c #0B0A09",
"#. c #1F0F06",
"$. c #1E1F20",
"%. c #A34E2C",
"&. c #A6512A",
"*. c #111316",
"=. c #8D401A",
"-. c #535557",
";. c #D18F4F",
":. c #F9D2A0",
">. c #5E2E0F",
",. c #A75229",
"<. c #B9694E",
"1. c #8D411A",
"2. c #3F4146",
"3. c #797A7C",
"4. c #BEA37F",
"5. c #2A2B2D",
"6. c #DDA86C",
"7. c #040505",
"8. c #686969",
"9. c #B3B1B1",
"0. c #0C0D0F",
"q. c #909193",
"w. c #D39250",
"e. c #838487",
"r. c #9E9FA0",
"t. c #A4A4A4",
"y. c #18191A",
"u. c #8B8B8B",
"i. c #30180A",
"p. c #232325",
"a. c #38393B",
"s. c #808080",
"d. c #241109",
"f. c #F8F7F5",
"g. c #6F3910",
"h. c #B0664A",
"j. c #9C5840",
"k. c #100504",
"l. c #EEC998",
"z. c #562709",
"x. c #959699",
"c. c #74644F",
"v. c #C7A982",
"b. c #302211",
"n. c #190A04",
"m. c #C38D77",
"M. c #2D2821",
"N. c #41454C",
"B. c #594E3F",
"V. c #737474",
"C. c #343536",
"Z. c #66523F",
"A. c #AB6144",
"S. c #95563A",
"D. c #3D3E40",
"F. c #573210",
"G. c #404CA1",
"H. c #43382D",
"J. c #F5CB93",
"K. c #BBBBBC",
"L. c #2B1209",
"P. c #3F1F0D",
"I. c #373B44",
"U. c #3F291F",
"Y. c #C38E7C",
"T. c #454343",
"R. c #5F5E5D",
"E. c #585D64",
"W. c #7E6B55",
"Q. c #D5B68D",
"!. c #4E331C",
"~. c #131110",
"^. c #DEBE92",
"/. c #4E4034",
"(. c #C1BEBE",
"). c #967F61",
"_. c #4E4E4F",
"`. c #8D4C30",
"'. c #6A3417",
"]. c #4C220A",
"[. c #5F3C2B",
"{. c #BBC7EB",
"}. c #1A1714",
"|. c #705D49",
" X c #ACA8A7",
".X c #ECBD83",
"XX c #D59142",
"oX c #F9CE97",
"OX c #6A4424",
"+X c #4C569B",
"@X c #8B4617",
"#X c #A65722",
"$X c #E6DAD7",
"%X c #EBDFDC",
"&X c #583920",
"*X c #7C8086",
"=X c #F4C68C",
"-X c #9D6123",
";X c #D0904A",
":X c #6B6F75",
">X c #B59975",
",X c #DD9A4D",
"<X c #E4C294",
"1X c #CDC9C9",
"2X c #CFB087",
"3X c #AA6826",
"4X c #AE7433",
"5X c #80472F",
"6X c #837E79",
"7X c #E4D7D2",
"8X c #85735B",
"9X c #E4B175",
"0X c #7D604A",
"qX c #865B2E",
"wX c #A26C2C",
"eX c #815524",
"rX c #332D25",
"tX c #755730",
"yX c #CE8630",
"uX c #45497B",
"iX c #354488",
"pX c #763A1D",
"aX c #EBC491",
"sX c #C88F72",
"dX c #C2B5B1",
"fX c #F7AA42",
"gX c #D6A369",
"hX c #DFD2CE",
"jX c #A2886B",
"kX c #D3AA7B",
"lX c #D9A060",
"zX c #CBA06A",
"xX c #D9DADB",
"cX c #DF9F58",
"vX c #EEEFF0",
"bX c #BD9A68",
"nX c #2F3452",
"mX c #A9B5D5",
"MX c #BC8D57",
"NX c #EBAE70",
"BX c #965925",
"VX c #E5DCDF",
"CX c #927151",
"ZX c #FECA84",
"AX c #EFCD9E",
"SX c #E4A154",
"DX c #C67F38",
"FX c #2941A2",
"GX c #9FBAE0",
"HX c #86A1E2",
"JX c #604E67",
"KX c #EB7306",
"LX c #0C9600",
"PX c #E40002",
"IX c #000005",
"UX c #47704C",
/* pixels */
"                                                                                                                                ",
"                                                                                                                                ",
"                                                                                                                                ",
"                                                                                                                                ",
"                                                  = . . . . . . . . -                                                           ",
"                                                = i y ; ; ; ; ; ; ; a                                                           ",
"                                                + t 5Xj.j.j.j.S.j.S.V % % % i                                                   ",
"                                              < w &XS.h.<.<.<.<.<.h.[.U.U.U., < -                                               ",
"                                            - % b j.<.<.<.h.h.h.h.h.<.<.<.<.I t i                                               ",
"                                          @ % Y `.A.A.A.j.pX'.'.'.'.`.A.A.A.S.C t X =                                           ",
"                                          o T 5XA.pX>.>.>.z.{ { { { >.>.>.>.`.S.[.q X                                           ",
"                                      = * w [.j.`.>.{ { { z.z.z.z.z.z.{ z.{ } `.S.U.5 <                                         ",
"                                        5 [.h.5X{ { { { z.{ z.z.z.z.z.{ { { { { S.h.7 O                                         ",
"                                    = 4 n 6Xe >.z.i.d.L.].z.z.z.z.z.{ L.d.d.L.].].P.6Xn +                                       ",
"                                      o q.u.k.L.i.n.k.k.d.i.i.i.i.i.L.k.k.k.n.P.d.[ r.s.O                                       ",
"                                      o u.e.] k.L.n.d.F.>.>.>.>.F.F.F.F.i.n.n.P.#.] r.3.O                                       ",
"                                      o u.u.] #.].P.wXgX6.6.6.6.6.6.6.6.MX-XP.P.n.[ r.N O                                       ",
"                                      d u.u.] #.].!.9Xo.:.:.:.:.:.:.:.:.oX.X!.k.k.7.t.V.O                                       ",
"                                  . A 1 2.2.[ #.'.0Xl.o.o.o.o.o.o.o.o.o.o.l.|.!.L.[ _.a.w s <                                   ",
"                                  * x 3.8.8.0.n.S.J.........o.o.o.o.......o.=Xw.&X0.8.8.V.8 +                                   ",
"                                  * S t.x.q.0.H.kXv.4.4.4.4.^.o.o.Q.4.4.4.4.v.aXZ.*.x.q.r.B +                                   ",
"                                  * S r.x.x.0./.Q.H.@.@.@.@.8XaXaX|.@.@.@.@.M.v.B.*.r.x.r.B +                                   ",
"                                  * k *.C.a.7.@.}.@.[ [ [ [ }.M.M.~.] ] [ [ 7.~.@.7.a.> 0.l +                                   ",
"                                  * k 7.> C.[ $.B.}.] [ [ ] M.B.B.M.] [ [ ] }.Z.M.7.a.5.7.l +                                   ",
"                                  # 5 2 5.C.] /.l.7 ] [ [ ] W.| | W.] [ [ ] 7 AXc.[ C.> 3 2 6                                   ",
"                                  - - o $.$.] /.<XrX] [ [ ] W.| | W.] [ [ ] 7 l.c.] p.p.O - -                                   ",
"                                      + % w ] /.l.jXH.] ] M.v.....2XH.] [ C jX:.c.] w , *                                       ",
"                                          o ] H.6.ZXv.).).>X:.....| v.).).>X=XNXZ.] o                                           ",
"                                          X 1 ; eX,X..| | :.<X^.^.^.o.| | | lXBX! 1 X                                           ",
"                                              s i.4X=XJ...^./.rXrXH.Q...J.J.CXb s                                               ",
"                                              ) H !.yX,XoXAXv.4.4.4.l.o.SX4XU.y <                                               ",
"                                            - d & f h XXoX:.| | | | | ..,XF.a.x O                                               ",
"                                          @ 3 x *X: b tX).gX:.| | oXzX).qXd.E.u.D s -                                           ",
"                                        = % 8 e.q.3.a.7.n.-X2X2X2XkXOX7.[ 5.3.q.*X8 d                                           ",
"                                      - o D 3.F : e.F 8 7.i.OXOXOXOXO.[ a.e.e.E.e.3.U d -                                       ",
"                                    - 6 M : *X:X8 -.Q N 0.Z.6..X9XcX0X0.8.9.-.2.:X*XE.z a .                                     ",
"                                    6 q G r r -.> G 8 N.y.e.f. .f.f.t.$.2.f 2.5.r N.N.& l A                                     ",
"                                  # V c.c.c.H.& y.~.y.C.y.e.f. . . .t.$.& y.y.0.> 7 c.|.|.R 6                                   ",
"                                  a c 6.o.| v.T.*.@.$.D.y.e.f. . . .t.$.a.p.0.*.M.>X| | 9Xc X                                   ",
"                                  a c yX.Xo.| c.$.y.2.N.y.e.f. . . .t.$.2.2.y.5.B.:.:.=X,Xg X                                   ",
"                                  6 ( -XyX.X..v.B.7.I.2.*.s.f. . . .t.$.D.2.@.B.4.| .XDX3X^ i                                   ",
"                                    + Z -XXXJ.| 8X[ I.2.*.s.f. . . .t.$.D.2.IXW.| oXXX3Xu 4                                     ",
"                                    - , e 3XlXJ.Q.c.& & *.s.f. . . .t.$.a.& B.Q.J.cX3XO.H /                                     ",
"                    4 % % % , , , , % z 0.e F.Z.bXzXtX&X}.3.f. . . .r.$.[.tXbX>XZ.&XO.7.$.j 5 % % % % % % a                     ",
"                - < 1 0.-._.0.*.*.*.0.$.8.5.] ] 8XAX<XQ.6X9.xXvXxXvX(.u.^.^.l.W.] ] C.8.y.0.*.*.*.0.2._.7.1 E -                 ",
"            = - 9 K _ 8.R.|.uXG.+X+XuX/.D.R.T.] r.x.V.x.-.9.a.(.a.r.u.a.K.D.q.q.[ -.V.Z.T.iX+X+X+XuXZ._.R.p.K 9                 ",
"              @ P wXT.u.d.0XmX{.{.{.mXr *.-.3.[  X3.8.e.a.t.$.K.5.q.V.~.9.p.3.r.7.q._.O.R.GX{.{.{.HXJX~.s.T.4XP @               ",
"              9 L !.p.3.s.nXG.G.G.G.iXI.R.3.C.@.9.8.V.s.D.t.p.K.5.q.V.~.K.5.8.9.@.D.s.V.I.iXG.G.G.FXnXR.3.p.!.L 9               ",
"            @ J wX:Xq.> -.-.E.: : : I.-.T.:Xu.> 9.-.s.s.-.9.5.K.a.x.s.p.(.f -.K._.x.-.-.-.D.: : : r T.R.a.q.8.4XJ @             ",
"            9 p eX& N.*.] ] [ [ [ [ ] ] 7.I.I.$. X9.(.(.K.1X9.1X X1X(. X1X9.9. X5.N.p.] ] ] [ [ [ ] ] ] 0.f & qXp 9             ",
"          @ ~ fXeXb.b.b.O.O.O.O.O.O.O.O.O.b.b.U.dX%X$X7X%XhX%X$X7X%X$X7X$XhXVXdX7 b.O.O.O.O.O.O.O.O.O.O.O.b.b.qXfXW @           ",
"          4 m p XX;X;X;X;.;.w.w.w.w.w.;.;.;.;.;.sXm.m.m.m.m.m.m.m.Y.Y.Y.Y.Y.Y.sX;.;.;.;.;.;.;.w.w.w.w.w.w.;.;XXXp m X           ",
"          O h #X#X,.&.&.&.&.&.,.,.,.&.&.&.&.&.&.%.%.%.%.%.%.%.%.%.%.%.%.%.%.%.%.&.&.,.,.,.,.&.&.&.&.&.&.&.,.,.#X#Xh O           ",
"          O g @X@XX.X.X.X.X.1.1.X.X.X.X.=.1.X.X.X.X.X.=.1.X.X.1.1.1.1.X.X.X.X.1.=.1.1.1.1.1.1.=.X.X.X.X.X.X.X.@X@Xg O           ",
"          O e g.g.} } } } } } +.+.g.g.+.+.+.+.} } +.+.+.} } } } } } } } } } +.+.+.+.+.+.+.+.g.g.g.+.+.} } } } } } e O           ",
"          4 q v u #.#.#.#.#.#.u v 0 $ $ $ $ $ $ 0 $ $ $ $ $ $ $ $ $ $ $ $ $ $ $ $ $ $ $ $ 0 0 0 u #.#.#.#.#.#.u Z q 4           ",
"          @ # # 2 ] ] ] ] ] ] 5 # # # # # # # # # # # # # # # # # # # # # # # # # # # # # # # # 2 ] ] ] ] ] ] 2 * * @           ",
"                3 [ [ [ [ [ [ %                                                                 3 [ ] ] ] [ [ 3                 ",
"                X t 2 o o 1 q +                                                                 + y p.> > p.k X                 ",
"                  % X   = O 1 -                                                                 = , N.E.E.N.y @                 ",
"                  < @     . #                                                                     6 M j j z X                   ",
"                                                                                                  = < # # # -                   ",
"                                                                                                                                ",
"                                                                                                                                "
};
