/* XPM */
static char *_41067ca4b9b4a9c8770ce26c112fb447M8EnBwixb6m4E2I[] = {
/* columns rows colors chars-per-pixel */
"64 64 253 2 ",
"   c black",
".  c #090B0C",
"X  c #0D1011",
"o  c #111315",
"O  c #11141B",
"+  c #17171C",
"@  c #1A1B1C",
"#  c #131823",
"$  c #181A21",
"%  c #1C1D21",
"&  c #1A1D27",
"*  c #141A29",
"=  c #121B2E",
"-  c #161F30",
";  c #1F2225",
":  c #1B2236",
">  c #152139",
",  c #212225",
"<  c #282022",
"1  c #242629",
"2  c #20212C",
"3  c #332422",
"4  c #3B2A27",
"5  c #2B2A30",
"6  c #2D2E32",
"7  c #2D373A",
"8  c #313035",
"9  c #323236",
"0  c #333238",
"q  c #333339",
"w  c #3D3D3B",
"e  c #46312A",
"r  c #4F332E",
"t  c #57382F",
"y  c #493B30",
"u  c #5E3B33",
"i  c #623E36",
"p  c #6B4239",
"a  c #6F493D",
"s  c #76493D",
"d  c #152340",
"f  c #152545",
"g  c #182E41",
"h  c #152649",
"j  c #16274B",
"k  c #16274E",
"l  c #1B2C4B",
"z  c #162950",
"x  c #182B53",
"c  c #192E57",
"v  c #182F5B",
"b  c #19315E",
"n  c #273747",
"m  c #363F40",
"M  c #1A3461",
"N  c #1A3569",
"B  c #1C3B6F",
"V  c #1D3B77",
"C  c #223960",
"Z  c #3F4A4E",
"A  c #214D5E",
"S  c #31415D",
"D  c #1E4173",
"F  c #2E466F",
"G  c #204E75",
"H  c #20417D",
"J  c #355078",
"K  c #276473",
"L  c #266574",
"P  c #4C4940",
"I  c #484946",
"U  c #535149",
"Y  c #46515A",
"T  c #7E4D41",
"R  c #67584F",
"E  c #67685A",
"W  c #786A5F",
"Q  c #495F64",
"!  c #415168",
"~  c #47617B",
"^  c #5A6D76",
"/  c #717170",
"(  c #875445",
")  c #8E5546",
"_  c #8F5A49",
"`  c #975B4A",
"'  c #8F6748",
"]  c #9D604D",
"[  c #9A6855",
"{  c #A06B45",
"}  c #A6764F",
"|  c #A46351",
" . c #AA6753",
".. c #A36C52",
"X. c #AB6E56",
"o. c #B26B58",
"O. c #B3765B",
"+. c #B07E5C",
"@. c #BA795F",
"#. c #827B62",
"$. c #5E827E",
"%. c #958B6B",
"&. c #A68C65",
"*. c #BF8161",
"=. c #BB8761",
"-. c #BC976F",
";. c #AA9B72",
":. c #BBA776",
">. c #B1A47A",
",. c #BFB07B",
"<. c #C68853",
"1. c #DF9A5F",
"2. c #C48764",
"3. c #C58F68",
"4. c #CC8D68",
"5. c #C79B6F",
"6. c #D29E71",
"7. c #C7A679",
"8. c #DDA877",
"9. c #D3AB78",
"0. c #D4B57F",
"q. c #E0B87F",
"w. c #1B3786",
"e. c #1F4A81",
"r. c #1E518F",
"t. c #1E5B9B",
"y. c #204383",
"u. c #20468A",
"i. c #21478F",
"p. c #2F5389",
"a. c #224B93",
"s. c #234C97",
"d. c #234F9C",
"f. c #245C94",
"g. c #225498",
"h. c #21539D",
"j. c #21589F",
"k. c #295B9D",
"l. c #1E659E",
"z. c #2F7282",
"x. c #2D6C9D",
"c. c #2653A2",
"v. c #205FA0",
"b. c #225BA4",
"n. c #1F6EA8",
"m. c #2563A2",
"M. c #2064A7",
"N. c #216EA3",
"B. c #2069A7",
"V. c #2662A9",
"C. c #276DA8",
"Z. c #2369AD",
"A. c #2E69A9",
"S. c #3162A3",
"D. c #2173AE",
"F. c #2576AC",
"G. c #2E73AE",
"H. c #3472A7",
"J. c #397CAE",
"K. c #2278B4",
"L. c #4377B0",
"P. c #3F8593",
"I. c #3085A0",
"U. c #2380B5",
"Y. c #2F81B6",
"T. c #2688BA",
"R. c #238FBD",
"E. c #3C82B7",
"W. c #338BB6",
"Q. c #308FBE",
"!. c #3C8EBC",
"~. c #3999BF",
"^. c #598E92",
"/. c #6C8B8E",
"(. c #7C8880",
"). c #4591AA",
"_. c #4C9AA8",
"`. c #4890BC",
"'. c #529BBF",
"]. c #6B9CA4",
"[. c #5EA9B7",
"{. c #72B5B7",
"}. c #2C99C5",
"|. c #379FC3",
" X c #2FA3CA",
".X c #37ABCC",
"XX c #3BB3D4",
"oX c #3AB9D4",
"OX c #43A2C3",
"+X c #4EA7C7",
"@X c #42ABC6",
"#X c #5DAAC9",
"$X c #43B7CE",
"%X c #50B5CA",
"&X c #4FBCD4",
"*X c #60B8D0",
"=X c #6CB9D2",
"-X c #3AC2E4",
";X c #3DCEEE",
":X c #3CD4F2",
">X c #3ED8F7",
",X c #4FCADE",
"<X c #5AC2D3",
"1X c #74C4C9",
"2X c #69CCD5",
"3X c #7BC7D7",
"4X c #4CDDF6",
"5X c #58DDF2",
"6X c #7BD7E3",
"7X c #8B8D84",
"8X c #959883",
"9X c #9A9B95",
"0X c #BAAF83",
"qX c #AEAA93",
"wX c #92ACAF",
"eX c #A9ABA6",
"rX c #B6B8A6",
"tX c #C3B580",
"yX c #CAB780",
"uX c #CDBE85",
"iX c #C1B48E",
"pX c #D1BD82",
"aX c #DCB881",
"sX c #C8BF9D",
"dX c #CAC08E",
"fX c #DCC285",
"gX c #D3C188",
"hX c #D6C688",
"jX c #D3C68E",
"kX c #DCCB8C",
"lX c #DBCF94",
"zX c #E6C888",
"xX c #EED18E",
"cX c #E1D290",
"vX c #E5D696",
"bX c #EADB91",
"nX c #EBDC9C",
"mX c #F0DC96",
"MX c #F4E49B",
"NX c #CFC6A1",
"BX c #D8CDA2",
"VX c #D3CFBC",
"CX c #E0D6AE",
"ZX c #FCE9A3",
"AX c #EBE3BC",
"SX c #8BC6C1",
"DX c #8BC8D3",
"FX c #99D4D2",
"GX c #AAD3D8",
"HX c #8DE0E5",
"JX c #A6EFEE",
"KX c #BDEEE9",
"LX c #EDFAF7",
/* pixels */
"                                                    @ 8 6 % * = = * $ 1 6 ;                                                     ",
"                                                  X 5 5 $ d V w.w.w.j # 1 5 o                                                   ",
"                                                  % 5 $ d b k k k j k j # 1 ,                                                   ",
"                                                o 5 , = k j j x c x j j f $ 5 o                                                 ",
"                                                ; 6 & f j b H i.a.u.B j j = 1 ;                                                 ",
"                                              @ 8 , = j x r.B.j.d.v.t.B j > $ 5 +                                               ",
"            X % , ; , , , , ; ; ; ; ; , , ; , 6 6 + f k N N.@XF.s.Q.Q.r.z f * 1 6 , ; ; , ; ; ; ; , ; ; ; ; ; ; % o .           ",
"        . @ 5 0 0 0 0 0 0 0 0 0 0 0 0 0 0 0 0 0 1 = j x e.t.H.m.t.x.H.t.D f d $ 6 0 0 0 0 0 0 0 0 0 0 0 0 0 0 8 8 6 , X         ",
"        1 8 8 8 8 8 8 8 8 8 8 8 8 8 8 8 8 8 8 6 $ d j B T.R.v.T.}.M.B.}.K.v f = , 0 8 8 8 8 8 8 8 8 8 8 8 8 8 8 8 8 8 1 .       ",
"        8 8 5 % + + + + + + + + + + + + + + + + - j z y.!.+Xt.W.=Xm.m.*XY.H j j - + + + + + + + + + + + + + + + % 1 8 8 %       ",
"        8 1 $ d k k k z z z z z k k k k k k j k x f D n.j.j.n.M.m.D.B.k.v.t.b k x k k k k k k k k k k k z z z z j * % 6 6       ",
"        1 - z x k j j k k j k j j j k k j j j k j k f.|.V.b.|.Q.l.@X|.g.T.}.e.j j j j j j j j j j j j j j k k k x N j 1 8       ",
"        & z z f k c v v b b v v c x x z z x c c v V s.k.a.V p.G v J G B x.E.a.N b v v c x x x c v v v v v v b v j k N * 1       ",
"        = j f v y.a.s.s.s.s.s.y.M c c x x v N y.s.d.h.y.v j > * * * > k M r.n.j.d.y.N v c c c b B i.a.a.s.i.a.i.V x j > %       ",
"        j f c i.v.h.j.h.j.h.y.x * $ % % $ $ > c u.c.k.c = % 3 s T s 3 $ > M H.V.u.c > $ % & % & > N i.M.m.s.n.B.s.H c k O       ",
"        f j V k.J.j.`.A.J.x.k & i ) ( ) _ T 4 & x u.N - t ) ] o.o.o.` T 4 - M u.z & 4 T ` ) ( ( e & N J.L.s.E.!.s.a.V x O       ",
"        d x u.B.n.h.k.d.y.x 5 T o.@.@.3.4.@.| p 2 j d r  .*.5.aXq.9.3.*.| r d k 5 T  .@.4.2.@.@. .p - B r.v.j.k.l.j.i.M O       ",
"        d b r.~.@Xj.s.s.M 2 ( X.9.xXgXcXZXaX3.@.p # < ) 3.mXBXBXAXNXvXxX2._ < % ( *.5.fXZXgXkXxX6.| u l l. XU.D. XU.i.N O       ",
"        d B a.S.H.l.v.a.f i O.-.hXlX0XiXsX>.cXzXX.4 u | 5.BXsXiXBXiXiXBX-.| u r @.xXbX0XdXtXdXlXyX=.] 8 f.=XE.C.#XG.t.G o       ",
"        > e.C.g.t.}.}.g.: _ 8.MXtXjXbXlXlXBXdX9.X.i ) 4.zX,.pXiXCXBXzX:.vX6.T p @.9.uXjXjXcXzXgXyXmX*.e H c.B.T.F.s.x.A X       ",
"        O B J.g.g.`.`.a.: ' fXuXtXaX} w U %.-._ u u  .6.pXkXW m Z Z %.fXcXpX[ i T ..-.%.P a *.zX,.lX7.y y.c.C.*X!.m.P.%         ",
"        X - H a.t.j.v.t.n yXuXhXfX@.r # % r a p p _ 9.cX,.#.y.V f V F ;.,.kXaX( s T T r $ $ ) 6.vXuXvXE y.b.B.H.k.).Q X         ",
"          o c f.}.B.F.~.n pXcXlXfXX.4 @ _ 2.O.3.6.0.jXkXlXY u.k * j V #.MXgXgXxXq.=.6.4.p o s 3.MXkXMXE y.T.XXT.H.^.; .         ",
"          . = e.J.v.m.H.C &.pX;.yX..u r O.zXfXmXMXvX>.NXrXp.B g I.g M ~ iXuX:.vXMXkXbXq.` 4 _ -.hX:.,.! s.G.=X!.[.Z .           ",
"            o x r.T.U.h.u.U vXyXmX2.) t ` 3.:.tX>.dXCX(.J i.l I.>XI.> H J 8XCXNXyX;.yX=.s i X.xXbXvX#.H K.U.V.!.].@             ",
"            . * e.`.J.d.i.! AXNX0X9.O.a p *.0.MXlXVX^ D d.B A ;X:X;XA M i.D ^ qXmXfXq.] r ] 5.pXuXAX/ u.`.#XV.'.m .             ",
"              X f r.n.v.j.g.^ 0XiXZXq.] u 4 y U I S r.b.s.x L :X:X>Xz.j i.h.u.C P y e t ( 6.ZXcXsX9Xp.K.U.A.W.$.o               ",
"              . # D OXG.J.V.y.>.iXCXgX=. .i % = x u.Q.Q.H = K :X:X>Xz.= D Y.V.N = < i | *.pXAXNXNXJ j.OX+XY.[.7 .               ",
"                X > p.k.C.b.c.J #.>.vXxXO.| ` e - M S.f.d e z.:X:X>Xz.3 > G C - u | o.*.xXnX0XiX^ g.n.C.Y.%X^ X                 ",
"                  O N m.}.K.c.y.U kXdXBXfX9. .] u - b f y 1.^.:X:X>XP.{ e - * u  .2.q.fXjXdXlX%.N D.XX}.|.{.1                   ",
"                  X l f.'.A.d.d.J 0XlX>.bXvX7.*.| r * , } =.I.;X>X;XI.} <.< 4 | 5.yXbXcX>.BXrXJ g.B.'.!.<X$.o                   ",
"                    O M r.n.M.h.B.x.8XiXuX,.MXfXo.] 3 { +.).-X X-X X-X_.' } t ..xXhX>.CXqX/.J c.R.}.D.W.1Xm .                   ",
"                    . - r.OXY.j.Q. XG U 0XnXgX0.4.T ( 1.^.;X>XXX~.-X>X;X^.1.} s =.gXVX9X4 b c.b.+X6XQ.*X/.o                     ",
"                      O B S.k.g.H.J.g.d U qXsX7...a 1.(.-X>X;X%XDX5X>X>X-X(.1.' ( &.W ] u b c.c.S.L.!.1X7 .                     ",
"                      X > u.v.U.n.v.B.l s | [ R e { ;.oX>X:X$X+XOX3X5X4X4X&X%.<.t r ] 4.a M c.c.c.C.*X^ o                       ",
"                        O C C.%XY.m.Y.B a 2.8.s e ' P.oXoX@X@XoX:X$X3XDXGXGXwX} ' 3 2.zXR y.c.c.m.OX].%                         ",
"                        . : e.x.v.v.c.d.S ..q.' 4 4 1 - g A |.>X4X;Xz.n 7 5 6 4 e y 9.>.J d.c.c.W.<X$..                         ",
"                          X l t.R.R.b.M.v.S ;.7.9.O.s & j b A @X3X~ b V d @ s O.7.:.&.S h.K.K.C.@X{.1                           ",
"                          . * r.'.'.j.E.G.C ,.fXbXaXX.a 2 c V C ! B V j < T X.aXvXlX%.V Z.&X&XQ.2XQ X                           ",
"                            o c a.k.M.m.c.H ;.yX;.tXfX2.a > B s.a.a.x 1 ) 3.fX,.>.CX(.u.V.`.`.+X].;                             ",
"                              * B v. XT.M.Z.F ;.mXuXkX7...4 M j.D.g.> u +.yXuX0XAX7Xp.K. XT.Q.1XQ                               ",
"                              . f g.!.G.G.Y.a.Y fXMX,.bX6.i N V.OXm.: ( q.ZX,.AXrXS d.Q.6X*X&X].+                               ",
"                                O M a.B.n.b.c.y.W kX,.cX-.u b s.c.i.: T 0.cX,.VX~ i.b.Z.E.!.1XZ X                               ",
"                                X * H W.|.b.h.c.l &.tXuX5.i z H y.V : ( 0.gXuXE u.b.}..XT.%X].;                                 ",
"                                  O M k.C.K.Z.c.l &.pXcX9.i > x x j & _ zXcXhXE a.j.+XHX%X1XY .                                 ",
"                                  . : y.C.<X!.c.y.R ,.:.5.T < O # O e ..0.,.%.F d.M.C.E.*X$.o                                   ",
"                                    O C g.L.S.h.s.Z kXhXfX` p t u i ( =.bXgX%.B V..XXX|.SXm                                     ",
"                                    X - H s.v.B.d.Y kX:.gX3.) ) ` ) ] 9.yXtX8XV V.#X=X&X$.o                                     ",
"                                      o b a.G.'.b.p.%.hXkXhX5.4.+.3.5.bXhXjXQ s.c.V.~.{.7 .                                     ",
"                                      . # H d.S.M.b.J dXjX:.bXmXpXmXhX>.CX8Xu.Z.V.W.2X$.o                                       ",
"                                        X x s.M..X}.j.~ qXBXlXjX0XNXBXVX(.p.D.oX X@X{.6                                         ",
"                                        . - y.b.'.E.h.d.p.~ eXeX7XeXwX~ u.h.C.=X%X2X$..                                         ",
"                                          X c a.d.M.U.M.M.D.r.H D D N.U.M.K.T.C.OXSXw                                           ",
"                                          . # H d.T.,XT.Y.<XG.G.E.b.~.&XK.@X6X|.3X$.X                                           ",
"                                            X v s.S.`.K.D.J.D.F.G.D.F.J.U.W.'.%XSX6                                             ",
"                                            . # H s.B.XX.XT.oX.XR.oX XR.,XXX|.6X^ X                                             ",
"                                              X c s.m.=X#XF.=X#XF.3X+XU.3X=X<XwX1                                               ",
"                                                * H d.k.U.R.F.U.R.F.R.R.U.@X1XZ .                                               ",
"                                                X d i.A.$XHX.XoX6X}.&X6X.X2X/.@                                                 ",
"                                                  O V A.*X=X|.@X*X|.@X*X2XFXm                                                   ",
"                                                  . : i.'.<X$X$X$X$X&X6XJX(.o                                                   ",
"                                                    X S ].GXJXHXHXHXJXKX9X1 .                                                   ",
"                                                      o I eXLXLXLXLXVX/ @                                                       ",
"                                                        . % E / / / w .                                                         "
};
