/* XPM */
static char *_64d219220544defe87890c56368c6a66zVtGOyt4RTRu87e[] = {
/* columns rows colors chars-per-pixel */
"64 64 101 2 ",
"   c black",
".  c gray11",
"X  c gray20",
"o  c gray21",
"O  c #313131",
"+  c #444444",
"@  c gray13",
"#  c white",
"$  c gray19",
"%  c #FFA178",
"&  c gray15",
"*  c gray23",
"=  c #292827",
"-  c #323232",
";  c #6F0F0F",
":  c #2E2D2D",
">  c #3F3F3F",
",  c #EFEFEF",
"<  c #911313",
"1  c #FFA47A",
"2  c #CE8262",
"3  c #2F2F2E",
"4  c #0E0C0B",
"5  c #0D0202",
"6  c #C61717",
"7  c gray17",
"8  c #929191",
"9  c #DE8A6A",
"0  c #A71313",
"q  c #971313",
"w  c #C01616",
"e  c #141413",
"r  c #731010",
"t  c gray96",
"y  c #C91717",
"u  c #791110",
"i  c #E6906C",
"p  c #B4B4B4",
"a  c #8A1212",
"s  c #BB1616",
"d  c #BA7459",
"f  c #602121",
"g  c #F59B74",
"h  c #9F9F9F",
"j  c #231510",
"k  c gray83",
"l  c #A11313",
"z  c gray99",
"x  c #545353",
"c  c #801010",
"v  c #C57C5E",
"b  c gray45",
"n  c #CA1717",
"m  c #A9A9A9",
"M  c #FC9E76",
"N  c #7B7A7A",
"B  c #B71515",
"V  c #744D3D",
"C  c #594239",
"Z  c #660F0F",
"A  c #1A0202",
"S  c #360606",
"D  c #C8C8C8",
"F  c #808254",
"G  c #98624C",
"H  c #E6E6E6",
"J  c gray87",
"K  c #CECECD",
"L  c #EE9571",
"P  c #7E503B",
"I  c #280505",
"U  c #3F0F0E",
"Y  c #868585",
"T  c #656565",
"R  c #2D1E16",
"E  c #4C4C4C",
"W  c #AB6D51",
"Q  c #DADADA",
"!  c #494949",
"~  c #66493D",
"^  c #423733",
"/  c #933B2F",
"(  c #A0654B",
")  c #095F30",
"_  c #366B3D",
"`  c #5D5D5D",
"'  c #EB9C72",
"]  c #3E2D2B",
"[  c #8E5B47",
"{  c #AF1515",
"}  c #751A17",
"|  c #352118",
" . c #C0C0C0",
".. c #462828",
"X. c #D27457",
"o. c #551B16",
"O. c #A95742",
"+. c #B79164",
"@. c #A3513E",
"#. c #001C33",
"$. c #1C3336",
/* pixels */
"                                              , ! & = = = = = = = = = = = & ! ,                                                 ",
"                                              , + @ @ @ @ @ @ @ @ @ @ @ @ @ + ,                                                 ",
"                                k 8 8 8 8 8 8 Y > 3 : = 7 = 7 = 7 = 7 = : 3 > Y 8 8 8 8 8 8 k                                   ",
"                                m @ @ @ @ @ @ @ o > o $ $ $ $ $ $ $ $ $ o > * @ @ @ @ @ @ @ m                                   ",
"                            H J h & & & & & & & o * o $ $ $ $ $ $ $ $ $ o * o & & & & & & & 8 J H z                             ",
"                          t T o o O O O O O O O O O O $ $ $ $ $ $ $ $ $ O O O O O O O O O - o o T t                             ",
"                          t x . = X X X X X X X $ $ $ $ $ $ $ $ $ $ $ $ $ $ $ X X X X X X X = . x t                             ",
"                      k Y N > 7 : O O O O O O - o o X $ $ $ $ $ $ $ $ $ X o o - O O O O O O : 7 > N Y k                         ",
"                      p @ . : X - $ $ $ $ $ $ O * > o $ $ $ $ $ $ $ $ $ o > * O $ $ $ $ $ $ - X 3 . . p                         ",
"                       .E ! o $ $ O O $ $ $ $ O * * o - - $ $ $ $ $ - - o * * O $ $ $ $ O O $ $ o ! E  .                        ",
"                      z , H x @ = X X O $ $ $ $ O O o * * - $ $ $ O * * o O O $ $ $ $ O X X 7 @ E H , z                         ",
"                          t x @ = X X O $ $ $ $ $ $ o * * - $ $ $ - * * o $ $ $ $ $ $ O X X = @ x t                             ",
"                      K b b > - - O O $ $ $ $ O o o o o X O $ $ $ O X o o o o O $ $ $ $ O O - - > b b K                         ",
"                      p @ @ o > * $ $ $ $ $ $ O * > o $ $ $ $ $ $ $ $ $ o > * O $ $ $ $ $ $ o > o @ @ p                         ",
"                  k K 8 = & o * o $ $ $ $ O X X * * o $ $ $ $ $ $ $ $ $ o * * X X O $ $ $ $ o * o = & 8 K k                     ",
"                  E 7 : - - O O $ $ $ $ $ o * * X $ $ $ $ $ $ $ $ $ $ $ $ $ - * * o $ $ $ $ $ O O - - : 7 !                     ",
"                  + @ = X X O $ $ $ $ $ $ o * * - $ $ $ $ $ $ $ $ $ $ $ $ $ - * * o $ $ $ $ $ $ O X X = @ >                     ",
"                  + @ & O O $ $ $ $ $ $ $ - X X O $ $ $ 3 = & & & = 3 $ $ $ O X X - $ $ $ $ $ $ $ O O = @ +                     ",
"                  + . & $ $ $ $ $ $ $ $ $ $ $ $ $ $ $ $ 3 @ @ @ @ @ : $ $ $ $ $ $ $ $ $ $ $ $ $ $ $ $ & . >                     ",
"                  N T x : 7 3 $ $ O O : 7 : O O : 7 7 7 3 C C C C C $ 7 7 7 : O O : 7 : O O $ $ 3 7 7 x T N                     ",
"                  z   p & & : $ O X - & @ 7 X - & @ @ @ 3 v 9 9 9 v ] @ @ @ & - X 7 @ & - X O $ : & & p   z                     ",
"                      p & @ : $ O - - = = : - - 7 = = = ] v 9 9 9 v ^ = = = 7 O X : = = - - O $ : & @ p                         ",
"                      p & @ 3 X : & : G d V & 3 W 2 2 2 2 L g g g g 2 2 2 2 d 3 & V d G : & : X 3 & & p                         ",
"                      p @ @ 3 X : @ = d i [ @ : 9 1 1 1 1 % % % % % 1 1 1 1 i : . [ i d = @ 7 X 3 @ @ p                         ",
"                      K b b * 7 ^ C ~ 2 L d V V G ( 2 % % % % % % % % % 2 ( G V V d L 2 ~ C ^ 7 * b b K                         ",
"                          t x . C v 2 g % % % L R   V % % % % % % % % 1 P   R i % % % g 2 2 ~ . x ,                             ",
"                          t ` : ~ d v g % % % L R   V % % % % % % % % 1 P   R i % % % g v d ~ : ` t                             ",
"                          z J Q 8 j | 2 1 % % ' _ ) F % % % % % % % % % F ) _ ' % % % 9 | j 8 Q J z                             ",
"                                h   4 2 1 % % ' _ ) F % % % % % % % % % F ) _ ' % % 1 2 4   h                                   ",
"                                h   4 2 1 % % M F F +.% % % % % % % % % +.F F g % % 1 2 4   h                                   ",
"                                h   4 2 1 % % % 1 % % % % % % % % % % % % % 1 1 % % 1 2 4   h                                   ",
"                                m . @ d i i i i M % % % % M M M M M % % % % M i i i i v @ . m                                   ",
"                                , Q K ^ j j j | 9 % % % M i 9 i 9 i M % % % 9 | j j j ^ K Q ,                                   ",
"                                    , :       4 9 1 1 1 % 9 9 9 9 9 % 1 1 1 9 4       : ,                                       ",
"                                    , 3   A S U V P P P [ 9 L L L 9 [ P P P V U S A   3 ,                                       ",
"                                    , 3   I r Z 5       4 9 1 % 1 9 e       5 Z r I   3 ,                                       ",
"                                , k D ] A U c r I 5 5 5 j 2 M g M 9 R 5 5 5 I r c U A ] D k ,                                   ",
"                                m e j < B B w B r Z Z Z } d 2 2 2 d } Z Z Z r B w B B q j e h                                   ",
"                                h   5 l n 6 6 w c ; ; ; } d 2 v 2 d } ; ; ; c w 6 6 n l 5   h                                   ",
"                                h   5 l y s 0 0 l l a ; r / / / / / } ; a l l 0 0 s y l 5   h                                   ",
"                                h   5 l y { < q w y l ; ; ; ; ; ; ; ; ; l y w q < { y l 5   h                                   ",
"                          z k D Y A I 0 y l r u B y 0 c c u u u u u c c 0 y s u r l y 0 I A N D k z                             ",
"                          t + 4 U a a s n u   A 0 y 6 w s q < < < q s w 6 y 0 A   r n s a a U 4 > ,                             ",
"                          t *   S < q s n r   5 l y 6 6 w q < < < q w 6 6 y 0 5   r n s q < S   o ,                             ",
"                          t *   S < < s n r   5 0 y 6 6 w q < < < q w 6 6 y 0 5   r n s q < S   o ,                             ",
"                          t *   S < q s n r   5 0 y 6 6 w q < < < q w 6 6 y 0 5   ; n s q < S   o t                             ",
"                      H  .p C R o.a a s n c A I l s w 6 w q < < < q w 6 w s l I A c n s a a o.R C p p H                         ",
"                      m 4 4 G v O.r r B y l ; ; a < 0 6 w q < < < q w 6 { < a ; ; l y B u ; @.v G 4 4 m                         ",
"                      m   5 G 2 O.r u { 6 l ; r a < 0 6 w q < < < q w 6 0 < a r ; l 6 { u r O.2 ( 5   m                         ",
"                      m   5 d g i X.X.o.S U ....r u c a a u u u u u a a c u r ....U S o.X.X.i g d 5   m                         ",
"                      m     v 1 1 1 g |   e X - Z ; ; ; ; ; ; ; ; ; ; ; ; ; Z - X e   R g 1 1 1 2 5   h                         ",
"                      D x x G W W W ( j   e * * f f f f f f f f f f f f f f f * * .   j ( W W W G x x  .                        ",
"                        z , *             . + + + + + + + + + + + + + + + + + + + .             o , z                           ",
"                          t + 4 4 4 4     . + + + + + + + > > > > > + + + + + + + .     4 4 4 4 > ,                             ",
"                          z k D D D p &   . + + + + > o X e 4 4 4 e - o > + + + + .   & p D D D k z                             ",
"                                    , $   . + + + + * X :           : X * + + + + .   $ ,                                       ",
"                                    , 3   . + + + + X . & ` T T T ` & . - + + + + .   3 ,                                       ",
"                                    , 3   . + + + + &   . Q       J .   @ + + + + .   3 ,                                       ",
"                                    , 3   . > > > + &   . Q       J .   @ + > > + .   3 ,                                       ",
"                                    , 3   4 & & & & e   . Q       J .   e & & & & 4   3 ,                                       ",
"                                    , 7   4 @ @ @ @ e   e Q       J .   4 @ @ @ @ 4   7 ,                                       ",
"                                    t 8 N E e e e 4 > N Y ,       , Y N > 4 e e e E N 8 t                                       ",
"                                          8         b                   N         8                                             ",
"                                          8         b                   b         8                                             "
};
