/* XPM */
static char *_261f87df2214581e9fccb853a1a6fa2Rr1zc71O06c8fndJ[] = {
/* columns rows colors chars-per-pixel */
"64 64 104 2 ",
"   c black",
".  c #FFA178",
"X  c #FDFDFD",
"o  c gray17",
"O  c #313131",
"+  c gray18",
"@  c #343434",
"#  c gray19",
"$  c white",
"%  c #FFFFFE",
"&  c #272727",
"*  c #FEA077",
"=  c gray14",
"-  c #181818",
";  c gray20",
":  c gray25",
">  c #3C3C3C",
",  c #222222",
"<  c #FFA47A",
"1  c #1B1B1C",
"2  c gray22",
"3  c #1D1E1E",
"4  c gray21",
"5  c #6D0E0E",
"6  c #818181",
"7  c #030404",
"8  c #111111",
"9  c #464747",
"0  c #F99E76",
"q  c #8E8E8E",
"w  c gray91",
"e  c #0A0B0B",
"r  c #141515",
"t  c #741010",
"y  c gray95",
"u  c #FAF9F8",
"i  c #B6B6B6",
"p  c #E6906D",
"a  c #553E38",
"s  c #BF775A",
"d  c #DE8A6A",
"f  c #FF9C71",
"g  c #3A3A3A",
"h  c #BF1616",
"j  c #FFA97E",
"k  c #D08665",
"l  c #A51414",
"z  c #9A9B9B",
"x  c #911212",
"c  c #555151",
"v  c #797A7A",
"b  c #620C0D",
"n  c #ED9471",
"m  c #CB8160",
"M  c #FFB085",
"N  c #FFE1D3",
"B  c #550A0A",
"V  c #841010",
"C  c gray80",
"Z  c #DB8364",
"A  c #400909",
"S  c #DA1919",
"D  c #CF1717",
"F  c gray90",
"G  c #761C1A",
"H  c #991313",
"J  c #260605",
"K  c #190303",
"L  c #EEEDED",
"P  c #342C29",
"I  c #C97C5C",
"U  c #9F674F",
"Y  c #B31515",
"T  c #0F0202",
"R  c gray76",
"E  c #6F746B",
"W  c #41312E",
"Q  c #AE6E53",
"!  c #7E1010",
"~  c gray86",
"^  c gray37",
"/  c #A2A2A2",
"(  c #F9EEEB",
")  c #D8966E",
"_  c #795443",
"`  c #07612F",
"'  c #933B2E",
"]  c #656565",
"[  c #A14D3E",
"{  c #8B5D48",
"}  c #281717",
"|  c #FFCCB5",
" . c #FFB594",
".. c #868063",
"X. c #676767",
"o. c #ACACAC",
"O. c #B38E62",
"+. c #B8694F",
"@. c #340C0A",
"#. c #FFEBDD",
"$. c #373B3B",
"%. c #852921",
"&. c #00A1FD",
"*. c #FFFD2B",
/* pixels */
"                                            u   6 - & & 8 6   u X X X X X X u X                                                 ",
"                                                q r = & 8 q                     %                                               ",
"                                      X   y q 6 c & o o = c 6 6 6 6 6 6 6 6 v R   X X X %                                       ",
"                                    %     y & e & 4 @ ; 4 , 8 8 8 8 8 8 8 r   z                                                 ",
"                                      L ~ C g = + ; O O ; + & o & & & & & o 3 q F ~ ~ ~ y                                       ",
"                                  u   z 8 , # O O # # # # 4 > 2 + + + + + + O = 3 3 , r i   u                                   ",
"                                      / r & O @ O # # # + 2 : > # # # # # + # & , , = - R                                       ",
"                            X   y 6 v c & o O O O # # # # @ 2 4 # # # # O 4 4 + & o o & ^ v q u % %                             ",
"                          %     y o 8 = 4 ; # # # # # # # # + + # # # # O > : @ + O O O 3 e :       %                           ",
"                        %   w C R 4 & + ; O # # # # # # # # # # # # # # ; g > @ O O # # o , 9 C C L   %                         ",
"                        X   z r & 2 > 4 # # # # # # # # # # # # # # # # # O # 2 > 2 + # 2 > @ = 1 i   X                         ",
"                            / r & > : 2 + # # # # # # # # # # # # # # # # + + 2 : g + # g : 4 , 1 i                             ",
"                        E ^ 9 o + @ @ ; # # # # # # # # # # # # # # # # O 2 2 4 @ @ # # @ @ @ @ O c ^ 6                         ",
"                        ; r & @ ; # + # # # # # # # # # # # # # # # # + O > : @ + # # # # + @ : : 3 7 9                         ",
"                        > , o @ O # # # # # # # # # # # # # # # # # O ; @ g g ; # # # # # # O 4 @ c c 6                         ",
"                        > 3 o @ ; # # # # # # # # # # # # # # # # + 2 > g # # # # # # # # O + = 1 i   X                         ",
"                        > 3 o @ ; # # # # # # # # # # # # # # # # + 2 : g # # # # # O O # O + = 1 i   X                         ",
"                        > 3 o @ ; # # # # # # # # # # # # # # # O O @ @ @ O O # # + & & + O + = 1 i   X                         ",
"                        > 3 o @ ; # # # # # # # # # # # # # + # @ @ O + # @ @ O O o 1 1 o O o = 1 i   X                         ",
"                        > 3 o @ ; # # # # # # # # # # # # O ; ; + + # O O + # + o ; a a @ O + = 1 i   X                         ",
"                        > 3 o @ ; # # # # # # # # # # # + 4 : 2 , , + @ O , , = 1 a n p a # # = 1 i   X                         ",
"                        > 3 o @ ; # # # # # # # # # # # + 4 : 2 = , + @ O , , = 1 a p d a # # , 1 i   X                         ",
"                        : , o O # # # # # # # # # # O 2 g O & W Q s a 3 W k k k k d 0 . a 3 9 C C L   %                         ",
"                        O 8 , O # # # # # # # # # # O > : o r P d n a e W M M j < < . j W 7 :       %                           ",
"                        6 v c & o # # # # # # # O O O ; O a _ { p n U _ _ U { d < * . . ..E q u % %                             ",
"                            / r & + # # # # # # O @ O = - U M < < . < M p     Q j 0 . f #.                                      ",
"                        u   z - & + # # # # # # O @ O = - U j 0 . . 0 < Z     Q j 0 . f N   X                                   ",
"                        X   z 1 o 2 g 4 # # # O o = P U Q d < * . . * < ) ` ` O.j * . f N   %                                   ",
"                        X   z 7 - > : 2 + # # # & 3 P s k p < . . . * < ) ` ` O.< 0 . f N   %                                   ",
"                        X   R v v 2 O ; O O O O o , P s I p < * . . . < n ..E ) < * . f N   %                                   ",
"                          %     X O - & @ ; ; @ o 3 o s m p < * . . . . < < j < . . . f N   %                                   ",
"                            X   w : o O O O O ; + & P s m p < . . . . . * 0 0 * * * . f N   %                                   ",
"                                % y   z 3 & = 3 _ I s 0 * * . . . . . . 0 d d d d p < f N   %                                   ",
"                                      z 7 - = 3 { d k . < < < < . . . . 0 d d d Z d f f N   %                                   ",
"                                  X   C 6 6 3 e a [ [ d p p p n * . . . * n n n n 0 | | (   %                                   ",
"                                    %     y -   A 5 t s m m I k . . . . . * * . f  .  % %                                       ",
"                                      X   F -   A t G +.s s s I 0 0 0 0 0 M M M j  .X % %                                       ",
"                                      X   w 1   A t 5 G G G t %.I m m I k ( X u u u                                             ",
"                                      X   F e   A ! t 5 5 5 b G m k k m ) u   % %                                               ",
"                                      %   y / z c J @.! V H l l ' ' ' ' [ (   X %                                               ",
"                                        %       v   7 V x Y S h 5 b 5 5 G L   %                                                 ",
"                                          u i i c K J x l H H H V V 5 B G L   %                                                 ",
"                                      X   F e   B H x h D B   J h D A   - w   X                                                 ",
"                                      %   w 1   B H x h D B   J h D A   r y                                                     ",
"                                      X   w -   b h Y h D B   K l l V ! t : 4 o.  X                                             ",
"                                      X   w -   t S D D S B   K x x h S Y     q   X                                             ",
"                                      X   w -   5 h Y Y h b T J 5 5 l D l 7   q   X                                             ",
"                                      X   w -   B H x t 5 5 t b     V S l 7   q   X                                             ",
"                                      X   w -   B H x t 5 5 t b     V S l 7   q   X                                             ",
"                                      X   w -   K J @.I Z Z Z +.7   V S l 7   q   X                                             ",
"                                      X   w -       e 0 M j M p 7   V S l 7   q   X                                             ",
"                                      X   w -   T K J Q s s s U J K ! h x 7   q   X                                             ",
"                                      X   w -   A ! b         T 5 t 5 t b 7   q   X                                             ",
"                                      X   w -   A t b T       T 5 5 5 t b 7   q   X                                             ",
"                                      %   w 1   } W W @ 4 4 @ 2 a a } T } i C F   %                                             ",
"                                      X   F e   -  .4 9 9 9 9 9 9 9 -   r y     %                                               ",
"                                      %   y E ] : 1 , : 9 : 9 : o o 8   - w   X                                                 ",
"                                                v   7 > 9 9 9 2         r w   %                                                 ",
"                                            u   E   e > : : 9 4 7   e e = L   %                                                 ",
"                                            X   v   e , = = = 3 e   6 y F X                                                     ",
"                                            X   X.    3 = , = 1     q                                                           ",
"                                            X   o.] ] 1 8 r 8 r X.^ R   X                                                       ",
"                                              %     X r       e       X                                                         ",
"                                              % X % F r   7   8 L X X                                                           "
};
