/* XPM */
static char *_5900f01084d4d45eb744ae744162a19v1JnqnBKmTyMUgMv[] = {
/* columns rows colors chars-per-pixel */
"64 64 107 2 ",
"   c black",
".  c #2F2E2E",
"X  c #222323",
"o  c #343434",
"O  c gray99",
"+  c #FFA178",
"@  c #FEFEFE",
"#  c white",
"$  c gray19",
"%  c #313131",
"&  c #3C3C3C",
"*  c gray20",
"=  c #2C2C2C",
"-  c gray15",
";  c #FD9F76",
":  c gray16",
">  c gray27",
",  c gray21",
"<  c #711010",
"1  c #1A1C1D",
"2  c #1F2020",
"3  c #FFA37A",
"4  c #393838",
"5  c #141616",
"6  c #0A0B0A",
"7  c gray25",
"8  c #D18463",
"9  c #5B5B5B",
"0  c #111111",
"q  c #E08C6B",
"w  c #C1C1C1",
"e  c #181819",
"r  c #747474",
"t  c #F49873",
"y  c #FFD2BD",
"u  c #100303",
"i  c #070303",
"p  c #FF9B6E",
"a  c #821211",
"s  c #640D0E",
"d  c gray63",
"f  c #C88060",
"g  c gray54",
"h  c gray58",
"j  c #676868",
"k  c #921212",
"l  c #4E0D0C",
"z  c #FFA57A",
"x  c gray92",
"c  c gray73",
"v  c #330606",
"b  c #6C0C0D",
"n  c gray62",
"m  c #FFB691",
"M  c #E9906D",
"N  c #8C1211",
"B  c #A61313",
"V  c #F3F1EF",
"C  c #D8D8D8",
"Z  c #FFA77D",
"A  c #F69C75",
"S  c #F8F8F8",
"D  c #CF1818",
"F  c #B5654C",
"G  c #AAAAAA",
"H  c #E2E2E2",
"J  c #CAC7C7",
"K  c #4C4C4C",
"L  c #989999",
"P  c #DA8869",
"I  c #C01616",
"U  c #BF7859",
"Y  c #D81818",
"T  c #9A1313",
"R  c #6F4E3F",
"E  c #745142",
"W  c #290707",
"Q  c #FFAE81",
"!  c #AE1515",
"~  c #7D503B",
"^  c #210404",
"/  c #9A644E",
"(  c #7E5746",
")  c #45342D",
"_  c #923D30",
"`  c #8A2B23",
"'  c #A11414",
"]  c #C91717",
"[  c #543E35",
"{  c #848355",
"}  c #AA6C56",
"|  c #321F1C",
" . c #A88767",
".. c #3B7040",
"X. c #005E2B",
"o. c #F1DFD6",
"O. c #DEC5C4",
"+. c #7A4937",
"@. c #371111",
"#. c #2B1714",
"$. c #412C26",
"%. c #C69468",
"&. c #5A2B21",
"*. c #808080",
"=. c #18002E",
"-. c #002E23",
";. c #2F2334",
/* pixels */
"                                                O O O O O O O S   x K 4 & 4 K x   O                                             ",
"                                              @                   S % e 2 e * S     @                                           ",
"                                      @ @ @ O   c g h h h h h h L g % : = : * g h C   O                                         ",
"                                            @   j i e 5 5 5 5 5 5 e $ o * o % 1 6 G   @                                         ",
"                                      S V V x   r e : - - - - - - - $ * * * % : 1 d O V                                         ",
"                                  S   n % 7 7 7 * = . = = = = $ 4 , % $ % % % $ . & , r   O @                                   ",
"                                      h 6 2 1 1 - % $ % % % $ o 7 & * . $ $ $ * o : 0 9                                         ",
"                            @ @ S L g 9 X = : : $ , o $ $ $ . % 4 , % $ $ $ $ % % . - > g g x   O                               ",
"                                  & 6 X * $ % $ 4 7 & $ $ $ $ $ . . $ $ $ $ $ $ $ % , = 5 e H     @                             ",
"                        @   V C C > 2 = $ $ % $ , & 4 $ $ $ $ $ $ $ $ $ $ $ $ $ $ % * $ - = c C H   @                           ",
"                        O   w X : , & , . % 4 & , % % $ $ $ $ $ $ $ $ $ $ $ $ $ $ $ $ * & & . e r   S                           ",
"                            J e 2 , 7 4 . % & 7 , . . $ $ $ $ $ $ $ $ $ $ $ $ $ $ $ . o 7 & : 0 r                               ",
"                        g j 9 % o o , * $ $ o o , 4 , $ $ $ $ $ $ $ $ $ $ $ $ $ $ $ $ % o o $ : 7 j j                           ",
"                        > 6 1 7 7 * . $ $ $ $ . , 7 & $ $ $ $ $ $ $ $ $ $ $ $ $ $ $ $ $ . . * , : 5 e                           ",
"                        j 4 & 4 4 % $ $ $ $ $ . , & 4 % % $ $ $ $ $ $ $ $ $ $ $ $ $ $ $ $ $ % o . - -                           ",
"                        O   w 1 X = % $ $ $ $ $ $ $ % & & * . $ $ $ $ $ $ $ $ $ $ $ $ $ $ $ % o = X X                           ",
"                        O   w 1 X = % $ % % $ $ $ . % & & * . $ $ $ $ $ $ $ $ $ $ $ $ $ $ $ % o = X X                           ",
"                        O   w 1 X = % = : : . $ % % % o o % % % $ $ $ $ $ $ $ $ $ $ $ $ $ $ % o = X X                           ",
"                        O   w 1 X = % : e 1 . % % o * . . * o * . . $ $ $ $ $ $ $ $ $ $ $ $ % o = X X                           ",
"                        O   w 1 X . $ 4 [ [ $ = . . . % % . . $ o * % $ $ $ $ $ $ $ $ $ $ $ % o = X X                           ",
"                        O   w 1 X % = ( t q ) 2 X X - * o - 2 : & & * $ $ $ $ $ $ $ $ $ $ $ % o = X X                           ",
"                        O   w e 2 % = E M 8 $.1 X 2 X * o - 2 : & & % . $ $ $ $ $ $ $ $ $ $ % o = X X                           ",
"                            S H C > e ( Z A q q P q U : - / 8 / - : 4 & o . $ $ $ $ $ $ $ $ $ % = - -                           ",
"                            @ @   7   R Q ; z z Z m M 1 5 } t } 5 1 4 7 , . $ $ $ $ $ $ $ $ $ * - 0 5                           ",
"                            @ @ S g j  .z ; ; 3 8 / / E R f t f R R 4 o * % % $ $ $ $ $ $ $ = - > r r                           ",
"                                      y p 3 ; Q +.   .3 Z 3 + 3 Z + ) 1 = o * $ $ $ $ $ $ $ : 0 r                               ",
"                                  O @ y p 3 ; Q ~   | ; + ; + ; + A [ X . * % $ $ $ $ $ % $ : 0 r   S                           ",
"                                  @   y p 3 ; Z { X...; + + + + + ; U U R 2 - . $ $ $ * & & = 5 r   O                           ",
"                                  @   y p 3 ; Z { X...; + + + + + ; 8 8 E 1 - . $ $ . o 7 & 2   j   O                           ",
"                                  @   y p 3 ; 3 %.{  .+ + + + + + ; 8 8 E 1 - $ % % % % $ * g h c   O                           ",
"                                  @   y p 3 + + 3 Z 3 + + + + + + ; 8 8 E 1 X % o * o . 1 2 H     @                             ",
"                                  @   y p 3 ; ; ; A ; + + + + + + + 8 8 ( - . % % % % o , & C   O                               ",
"                                  @   y p 3 M q q q M + + + + + + + A ; P U } = X : 2 9 V x O                                   ",
"                                  @   y p ; q P P P q + + + + + 3 3 3 z M 8 f . X 2 6 9                                         ",
"                                      V y y A t t t t + + + + A q q q q F _ _ e i j G c   O                                     ",
"                                            3 p ; ; ; 3 + + 3 t f f f 8 _ s s i   d                                             ",
"                                      @   O m m m m m t t t A q F F F F _ < s u   n   S                                         ",
"                                                @   o.U f f 8 F < < < < < < s u   n   O                                         ",
"                                                @   o.U f f 8 F b < < < < < s i   n   O                                         ",
"                                                O   O.a ` ` ` ` ! ! k k l u  .G c H   @                                         ",
"                                                O   O.b < b s a Y D T T l   5       O                                           ",
"                                                O   J l l a N N k k T B s ^ @.h L C   O                                         ",
"                                                    w     k Y N     B D ! k N     L   O                                         ",
"                                                V S G     k Y N   i B D B k a u   n   O                                         ",
"                                            O   r 6 | T ' T ' <   i B D I I ! u   n   O                                         ",
"                                            S   9   ^ D D ' T b     B D ] D I u   n   O                                         ",
"                                            O   9   W I ] b l l v v N B B ! ' u   n   O                                         ",
"                                            O   9   W I D W   ^ < < b s a k a u   n   O                                         ",
"                                            O   9   W I D v   ^ < < < < a k a u   n   O                                         ",
"                                            O   9   W I ] v   $.M M M t +.i u i   n   O                                         ",
"                                            O   9   W ] D v   ) m Q Q m (         n   O                                         ",
"                                            O   9   ^ T T l v l ~ ~ ~ ~ &.v v i   n   O                                         ",
"                                            S   9   u b b < a l         v a < u   n   O                                         ",
"                                            O   r 0 | s s s < l 6 6 6 6 @.< s i   n   O                                         ",
"                                                O   w     % > > > > > > & % . 6   d   O                                         ",
"                                                O   w     , K > > > > > & , $     L   O                                         ",
"                                                O   w   i 0 0 X > > 7 > : 6 2 G c H   @                                         ",
"                                                O   c         0 > > > K X   5 S     @                                           ",
"                                                O   J : 4 6   0 & & & 7 2   e x   O                                             ",
"                                                          -   6 X 2 2 X 0   e x   @                                             ",
"                                                          2   6 X X 2 X 0   0 x   @                                             ",
"                                                      @   J J r   6 6   j J w S                                                 ",
"                                                          @   n         *.                                                      ",
"                                                          S   c K 9 9 K G   S                                                   "
};
