/* XPM */
static char *_c98c94814fa417cd08674f77c5eeddecSUgMPDZYuzdsTis[] = {
/* columns rows colors chars-per-pixel */
"64 64 87 1 ",
"  c black",
". c #232323",
"X c #3C3C3C",
"o c #282828",
"O c #C71717",
"+ c #C91717",
"@ c #711010",
"# c gray15",
"$ c gray19",
"% c white",
"& c gray20",
"* c #911212",
"= c gray21",
"- c #0A0404",
"; c #313131",
": c #A21414",
"> c #131212",
", c #FEFEFE",
"< c #2F2F2F",
"1 c #200404",
"2 c #681010",
"3 c #444444",
"4 c #585757",
"5 c #F9F9F9",
"6 c #6E1010",
"7 c #2F2020",
"8 c gray",
"9 c #AD1515",
"0 c #222323",
"q c gray13",
"w c #1B1B1B",
"e c #6D6D6D",
"r c gray12",
"t c #747473",
"y c #FCA077",
"u c #C8C8C8",
"i c #BD1616",
"p c #D2D2D2",
"a c #2A2A2A",
"s c gray25",
"d c #0C0C0C",
"f c gray54",
"g c #891514",
"h c #750F0F",
"j c #6E1313",
"k c #2C2C2C",
"l c #202020",
"z c #E9E9E9",
"x c #4E3636",
"c c #4C4D4D",
"v c #831010",
"b c #DAD7D7",
"n c #2E0707",
"m c #B31515",
"M c #7C1313",
"N c #7B7B7B",
"B c gray38",
"V c #81807F",
"C c gray18",
"Z c gray87",
"A c #B81515",
"S c #2D2D2D",
"D c #222222",
"F c #6B6565",
"G c #A71414",
"H c #3D221D",
"J c #432925",
"K c #4E1616",
"L c #D78664",
"P c #AAAAAA",
"I c #9A1212",
"U c #B57053",
"Y c #9D9D9D",
"T c #7F5643",
"R c #603A2B",
"E c #905B44",
"W c #A91515",
"Q c #AF5E47",
"! c gray69",
"~ c #B7B6B6",
"^ c #A2A2A2",
"/ c #5A1515",
"( c #A8A6A6",
") c #D6BCBC",
"_ c #56241C",
"` c #00233C",
"' c #233C28",
/* pixels */
"                           5cl...qXz                            ",
"                          ,5cl...qXz                            ",
"                    ,(NVVVVNXoaaaa&tVVVVNY5                     ",
"                     Fwrrrrlk$$$$$Cqrrrrw45                     ",
"                 5pppB#oooooC$$$$$<ooooo#cupp5                  ",
"                ,bXC<=XXXXXX&$$$$$;XXXXXX=<C&8                  ",
"              ,, p$q.&XXXXXX&$$$$$;XXXXXX=.D#8 ,,               ",
"              !eeB=&&&=====&;$$$$$;&=====&&&=Bee^,              ",
"              fwr#XXX=$$$$$$$$$$$$$$$$$$$&XXXorwe               ",
"          5puue.#a=XX&$$$$$$$$$$$$$$$$$$$&=X=k#.Buuu5           ",
"          zcoaS$<$$;;$$$$$$$$$$$$$$$$$$$$$$;$$<$CaoXb           ",
"       ,5,z3q.a$$$$$$$$$$$$$$$$$$$$$$$$$$$$$$$$$a.D&p,5,        ",
"       8BBBX==;$$$$$$$$$$$$$$$$$$$$$$$$$$$$$$$$$;===4BB!        ",
"       PrrD=XX=$$$$$$$$$$$$$$$$$$$$$$$$$$$$$$$$$=XXX#rwf        ",
"       P..#=XX=$$$$$$$$$$$$$$$$$$$$$$$$$$$$$$$$$=XXXo.lf        ",
"       P..#=XX=$$$$$$$$$$$$$$$$$$$$$$$$$$$$$$$$$=XXXo.lf        ",
"    555(..#=XX=$$$$$$$$$$$$$$$$$$$$$$$$$$$$$$$$$&XXXo.lf555     ",
"    t443<<<&&&;$$$$$$$$$$$$$$$$$$$$$$$$$$$$$$$$$;&&&$<C344B     ",
"    sww#&&&$$$$$$$$$$$$$$$$$$$$$$$$$$$$$$$$$$$$$$$$$&&&owwo     ",
"    fee4SSC$;;$$$$$$$$$$$$$$$$$$$$$$$$$$$$$$$$$$$;;;CSSceet     ",
"    ,, P...$&&;$$$$$$$$$$$$$$$$$$$$$$$$$$$$$$$$$;&&;#.lf ,,     ",
"       P...$;;;<<$$$$$$$$$$$$$$$$$$$$$$$$$$$$$<<$;;;#.lf        ",
"       P...ooooooa<$$$$$$$$$$$$$$$$$$$$$$$$$$aoooooo..lf        ",
"       Prrl######o<$$$$$$$$$$$$$$$$$$$$$$$$$$o######lrwf        ",
"       uNNt;.#####kkkkkkS$$$$$$$$$$$$$Ckkkkkko####.aeNN8        ",
"          z3lD.#########o$$$$$$$$$$$$$a##########Dq&b  ,        ",
"          z4&=S#########o<<<<<<<<<<<<<a#########a&&3Z           ",
"          5ZbZtq..#######ooooooooooooo#######..lBbbZ5           ",
"              fwrq###########################qrwe               ",
"             ,8ffta.#########################eff!,              ",
"               ,,b;D0#####################.0o8 ,                ",
"                 p&77#####################7778                  ",
"                 bj22H0..##############.0722j)                  ",
"                 bM@@H00.#############.0076@@)                  ",
"              ~ttFj@@/KKH............#HKKK6@@Ftt^,              ",
"              t  -2@6@@@/.000000000000Kh@@6661  4               ",
"          5bpbF11nhMMh@@/7777777777777K@@@MMMn114ppb5           ",
"          z=>>2AmAiiig6@622222222222226@6viiiAmAM>>#b           ",
"          z#  2+OOOOO*66@@@@@@@@@@@@@@@66vOOOOO+v  >p           ",
"         ,z#  2+OiWGG:::::::::::::::::::::GGWiO+v  >p           ",
"          z#  2+OiI**mOOOOOOOOOOOOOOOOOOOi***AO+v  >p           ",
"       zuu~H11MOOAMhhWOOOOOOOOOOOOOOOOOOOmhhh9O+*n1n(uuZ        ",
"       ^dd>IiAiOO:1--v+OOOOOOOOOOOOOOOOO+I---*+OOAi9nddV        ",
"       Y  -G+OOOO:-  v+OOOOOOOOOOOOOOOOO+I-  *+OOOOA1  N        ",
"       Y  -GOOm:Gv-  v+OOOOOOOOOOOOOOOOO+I-  hG:9OOA1  N        ",
"       Y  -G+OW**h-  v+OOOOOOOOOOOOOOOOO+I-  2**:OOA1  N        ",
"    u88VHHJ:mm:**Mn11*+OOOOOOOOOOOOOOOOOO:n11@**ImmW_HHt888     ",
"    C--RyyLg@@v***gggmOOOOOOOOOOOOOOOOOOOA*gg***g@@MLyyT-->     ",
"    #  Ryyyg@@v******mOOOOOOOOOOOOOOOOOOOA******v@@MLyyT  d     ",
"    #  RyyyUQQRnnng**mOOOOOOOOOOOOOOOOOOOi***Knn_QQQyyyT  d     ",
"    .  RyyyLLLR  1g**mOOOOOOOOOOOOOOOOOOOi***1  JLLLyyyT  d     ",
"    FccTUUUEEEJ  1Mgg:9999999999999999999:ggv1  7EEEUUUTcc4     ",
"    55,Y         -2@@@@@@@@@@@@@@@@@@@@@@@@@61         N,55     ",
"       ^------   -2jjjjjj66666666666666jjjjj61   ----- V        ",
"       z8888884  dxxxxxxxJJJ1111111JJJxxxxxxx>  s888888Z        ",
"       ,      t  ds33333s&&;-      S&&X333333>  4               ",
"              t  ds33sXs=Dq.c44444c#qq;sXs33s>  4,              ",
"              t  ds33=&&.  du ,,, Zw  w&&=333>  4,              ",
"              t  dXss=;&.  du     Zw  w&;=sss>  4,              ",
"              t  -#oo###w  du     Zw  >###oo#d  4,              ",
"              t   rqqqqD>  du     Zw  >Dqqqql-  4,              ",
"              !Fe4w>>>>>CFetZ     zNFe=>>>>>>ceFY,              ",
"                 p>     c5            e     -~                  ",
"                 u>     c5           ,e     -~                  "
};
