/* XPM */
static char * wall_xpm[] = {
"64 64 85 1",
" 	c #000000",
".	c #1D1D11",
"+	c #171C09",
"@	c #050D01",
"#	c #0B0C04",
"$	c #0E1006",
"%	c #101405",
"&	c #050601",
"*	c #020301",
"=	c #080903",
"-	c #18180E",
";	c #081301",
">	c #13130B",
",	c #9E9C7C",
"'	c #21280E",
")	c #151809",
"!	c #2D2D1C",
"~	c #0C1A02",
"{	c #232F0F",
"]	c #282818",
"^	c #1B240B",
"/	c #A4A281",
"(	c #5D5C43",
"_	c #AEAB8C",
":	c #8A8A69",
"<	c #CECAAB",
"[	c #31331F",
"}	c #767659",
"|	c #9A9879",
"1	c #828263",
"2	c #B4B191",
"3	c #C0BD9E",
"4	c #232316",
"5	c #444330",
"6	c #303816",
"7	c #8F8D70",
"8	c #A9A786",
"9	c #383620",
"0	c #292E15",
"a	c #646449",
"b	c #959276",
"c	c #404527",
"d	c #2A3514",
"e	c #71764C",
"f	c #4B542E",
"g	c #555A3A",
"h	c #C6C2A2",
"i	c #6E6D52",
"j	c #4A4A33",
"k	c #383827",
"l	c #212110",
"m	c #C9C6A6",
"n	c #444A2C",
"o	c #D3CFB0",
"p	c #4D4C38",
"q	c #3E3D2A",
"r	c #3A4521",
"s	c #606741",
"t	c #DBD7BB",
"u	c #D7D3B4",
"v	c #465225",
"w	c #BDBA99",
"x	c #7E7C60",
"y	c #7C7F5A",
"z	c #132404",
"A	c #344017",
"B	c #515634",
"C	c #DFDBC0",
"D	c #53523C",
"E	c #B9B696",
"F	c #969670",
"G	c #596435",
"H	c #3D4A1C",
"I	c #525D2F",
"J	c #686F3F",
"K	c #697149",
"L	c #3B3D23",
"M	c #E2DFC6",
"N	c #6C694A",
"O	c #333C1F",
"P	c #797C50",
"Q	c #605B38",
"R	c #86895F",
"S	c #E7E5CE",
"T	c #948A61",
"_7ak-&>.l)==#  .[(183Ebi5.*-kjDpD[>#=>!Dx/2biq.=*>-=*&&=* =$]g1|",
"u<h2bp!9[l.4-*!b2houtuohE,p-jaa(i([&p|2h<ooomE,}..!.$#>.#]i:8w<o",
"tu<hw|5][!l.$.x3<otMMCu<h3|5q(NN}N!q/m<outCtomw_N..]0l]-.x23<uCM",
"Cu<hw8a]ll.$>(/3m<tMSCu<hw8a!9qppk9}83motSSMom3_79-l0!llD|wmoCSS",
"tom32,a4-.-#-a|_E3oCMCom3E,a[!Ljqk5a:8w<tSSMohw_7k$.]].[a,wmoCSS",
"o<32/:D>    -jyF,8w<uu<32/7a]&=$#>[ja1,EoCCtmw_,}!* * =!gF2wmuCt",
"3w28b}D.*&**=ksP1F,_E3E_,7}(!*=&*&-Ofsy|EhmhE_bx(]* &&=lD:/2wm<m",
"88/|1an'&#=* 0fsPTT:|/|:yK(5!=+)#*$0HGJyb/_8,:Njk4&*=#*$niF82E2_",
",||b}g[)     .LBeTTy1RyN(g5[]=$=& &^0HGJey1xi(q!4^=    =OgyF/8/,",
"|,7}(q4>&@&* -rfIJPeKJJgc[[!4=;;* &{{!9vGsNeJL[]l+#*  *&]5NR:bbb",
",:p44..+@~*&*.dO6]cffBB0$$>.l@~~&**+^{]+[IGsfl--+)$~@&&&4kp(Di17",
"TD# **&#;;*&&)#=&*=0GG6&  **)%;@&@&$==&*$cGv^****=#z~@&#'>->$4D1",
"(!*   &)@@&==%&    'HL%    *-%@;@~%=    *+r0$    =>~z~#)%    &9i",
"94k[44[0$@~;)++#$'l0)l&%^)-6!)&~~$^^%%+'+$$##%)>l9[kff[!].>-...9",
"#>jjLqL0$&@;%%))+{0+**&'06[nLq5pIq!'{{AH{#* +AA[ns1,/bxiDjjBQc>$",
" &>>====****&====&#$  &%$>LgN}R11}sL6{+%%&  =+.ni|E<oh2,1iaB90$ ",
" **    #)->$=    *&& *&&&!gP:|8_8,:KnO+&=***&=c}/w<tMMow87xN9-# ",
"&=#*>5a}igr].>#& &$#&&#%'LsyF2mmhw8Fsql$+#=&#^B:2h<tMSC<E8|:(!$&",
".)#$(|2E8}Gn]4.-#&%))$+^dcgeF3tto<3,ef6+$%)##+L},2hoCCt<E_/ba4.l",
".>$9},8w3,}sv!4-+$%%%%#%{[5(FEtto<w,}nd%*#%#&=0gy,2h<<m328,7a>#.",
">-.n}:b_m37KJvO'')#%#$=&^Ange/3h3E_ben.=*#$#*={cs1/222_8,|:x(-$-",
" =.c(ix|E3/ReIrd.%*     zAvGeRF,,|7}gr-=     &{[fN7/,|b7:1iap-*&",
"=&>kB(a1,_,RJGL0-^&*    $'6rIseyxx}sfd)&     *^dvQy77111yaa(q>*&",
"%*$9fgKeRF:eJGn0'^=&&*  %'l6vfGKeescH{%*     *^dAc5a}}Ryp[[k]#=>",
"* %rvBJKePPPJIvA^+=**** #+)-06vBJsAl+$#=     *#%$%#.jePc#*&==&==",
"@*$OrvIGJ(s(gIcA{^#@~~@&#=&**#'fGH#****==&&*=&&    =LNB.    *#&;",
"~&$!dr[[c5jpc9Ad.^%~~;@@&*    ^Hrd=    %$%%>;%+)#$++6L[-$$#-9!$z",
"@ -d^>##-!qn'###$%%~~;~%%+%+{dd)'+)++%))#$z+#+^^{dAA+##4cccQNq-@",
"#&.%    &lLO$   *$l6d'z^z^'ArvA&&#'00{'-l{6'+^>%+++'%  +64-!kj5j",
"b(n4$&&##$.>$*$]OnjBfcOO0^^^dd^* &%$+dA[fGspnO]$ *&%%**$#>ka:_3h",
"o37gk]0A'#&&+]L5jgsaagBncA^*%''=&&='AOqpNy:yKgcd$ #^)%$+0j18hoou",
"u<_xDc6{'*  -rnDsKyR1PJGfvA)#'{%$#'AOrfaR/8,:egr{=%''^^{cs:_houu",
"uo3,in0$%& *'rjseP1FF1eGIIH'#-0'%){66nBsy/88,:Kn0+%++'+{vK:2mouu",
"toh_1g6+$**&'OfsKe17|7ysIvrd;=#$$#)6HvIJe17,|7ej6+=+'^%-L(:_huCC",
"Co3_1Bd+#%#&%6vGsey:FFy(Iv6{$*@$$*%{OLfgsiy::Refd)**&&&>rs:_3oMS",
"uh2/}j!)&%%*=]rIeKyR:RPeIIv{#     ;{ArfnjDssKPJc]+*    $rGR/Ehot",
"w_/7a5[+&$#&&'drfgKeN(gGrHH^#     ={HrvvckBG(sj['+* ** =[BPF8_2E",
"/,|:a5[+*=&**+06rIJsgIfrrAd)=  *  ${A!rIvLfGIjcr0)* ** =dfe:b|||",
"||bxapk-**  *-{666cfvvr0{{'+# **  ;zd00Hvrvnc[]{'.==&;&&0fKiix77",
"b7(qc5k-*=& &)#===>drH{&&====@~;$&=#%%#+dHvO.#==#)$@@~;#'0[].ki7",
"F(>&#$$#&#&*=$    &drdz    *%~~z%==     +AH6#    %#@@;~$$    $(F",
"x5&   *$*  &#>%##))'A0%$&*&~~;&@~~==&&#)0d6')#==#))~~~~)>$&=$.ji",
"5!!]..!l&&#@+'666HA)$$+A{))+$&@@@%=#%+6vH%-$AHA{^%%@@;){4[95Qg!k",
"#.BQBBnl&%^&%^'''0'%  $l%==&&&@;@&&=$$'66= ={'+%$&&@z;;{']!95j.#",
" =ll-->#&$~;&***=#%$**=  *  &@@@@**   #)^* &=**  *&~~@&&#==#>0> ",
"*=&    **~~;@ *  #+%+%$=   *~*&&*&&   &^+=$#$&   ;~~&*=; * *.!>=",
"$>-& * ~+'0'{& **$)00^'%   *;@&$&*&   &++$#$)&   ;;;~@@~&**&4q9]",
"]!.&$4qa1b|:i5.=#%)'l^%#&*=^4Lpp[.)= *&&=####**=>[gx:and>*=--]99",
"!4-4},2hmm<<h_:p$#)+''+#$!cBayx}i(B[-=*=$##==&-OD:_h<3/:a5]>4[99",
".!4NE<ouCCtu<3/1q=*=##&*]fs}7//|:xKB[>  *****#]j}_<uto38bxg$*$.-",
" *kF3<<tSSMt<38:(.&*** >Og}|EmmE8,1sc{#**** &-[D7htMMC<w_|i]=&&*",
"#$p,whmoMSMu<w8:(0$$%##.nK72<tt<3_bif6%&=&&&%.k(|mCSSMo32/}q>>l.",
"l.p|2Ewmutu<32,1s0=$=&#lBP,w<ttomE,}D[$**&*=^0nK,htMMt<E_,}k$$!!",
"==p,8_2w333w28|1(!&= *&]BP/23mmhw2,yp!$***@*^AcK|Em<<hw_/7}5#@$#",
"  j,//_____8/,7xgO#&***]f},_22_2_/b}j!)*@~~ +HfeF_2_2_8/b1}D>;~;",
"&*5|,///,bbb|bb1ac$&@;*lneF/8/,,,,7}j]'#;;~&%OBP|//,,,,|7xi(.;;~",
"& j|,,1x1}x1xi}1ic>;zz*'fi7bb|bb,|:}gk0#~;@*>[Dy:771:77:11}D4zzz",
"; pxiDk!5(iiq.4k59>z{z&4fNi((x7||i55qL];~;;*.cjDj5(ix1(kkjD5>&&@",
";#5]=&**-BP5#  *&-+zz~@!4->#>j78}.&=#$-$&***.4>#==]NTN.*&=#-> *=",
"~-q-*  *>kg4=   &!0z;@+!#    kxb(>    4^z@#=.#    >j}5>    l.*&%",
"~kDQjLcn!>4>]qkqQQ!%z)[jgjk5DDq(kppkq(Q]z~@lknL!9q9.k.l!!!jQ!$;~",
"@[pQJQQQ[&*&9QaNeD!@~~qDiTRT:a$$41,bbFa!&@@[pQeNJQq=&&9N}xR(!%;@",
"~$]]]]]--& *>-..>$$;~;.5jp55p5= -p5!4].>&;@>kq9!4.l&  -!!4].>@@&",
"@@&  &=#>& ** * * ;~;;@=& &-!9$&-]#=   @;;;@&*  &$.&  *     &@@;"};
