/* XPM */
static char *_177889d6a53452d947540487ead63746fzkv0hMxAuntj1P[] = {
/* columns rows colors chars-per-pixel */
"64 64 88 1 ",
"  c #0F0F10",
". c #212122",
"X c #AF775D",
"o c #1E1D1F",
"O c #1B1B1C",
"+ c #242426",
"@ c #282627",
"# c #141314",
"$ c #171718",
"% c #0C0C0D",
"& c #080909",
"* c #B07960",
"= c #313133",
"- c #2E2E31",
"; c #AA7259",
": c #363639",
"> c #4A4B4D",
", c #A06B53",
"< c #39393C",
"1 c #060606",
"2 c #28282B",
"3 c #2B2B2D",
"4 c #3F4041",
"5 c #333336",
"6 c #515153",
"7 c black",
"8 c #4D4D51",
"9 c #444549",
"0 c #A66E56",
"q c #B47D62",
"w c #959596",
"e c #8E8E90",
"r c #513025",
"t c #5A5B5E",
"y c #646467",
"u c #48484A",
"i c #5F5F62",
"p c #E2AD8E",
"a c #3C3C3F",
"s c #BD866C",
"d c #6A6A6B",
"f c #747477",
"g c #555558",
"h c #9C9C9D",
"j c #7B7B7C",
"k c #8A5A45",
"l c #8A604E",
"z c #ACACAD",
"x c #404146",
"c c #434444",
"v c #878789",
"b c #808083",
"n c #DBDBDC",
"m c #6F6F71",
"M c #28201D",
"N c #C4C4C6",
"B c #845641",
"V c #F9FAFB",
"C c #BABABD",
"Z c #342621",
"A c #A1A1A2",
"S c #E7E7E7",
"D c #A6A6A7",
"F c #7C503D",
"G c #D0D0D1",
"H c #B3B3B5",
"J c #D79E7E",
"K c #EFEFEF",
"L c #92604A",
"P c #99654E",
"I c #5D483E",
"U c #3C2C27",
"Y c #BA8267",
"T c #45291E",
"R c #C0896E",
"E c #515C5E",
"W c #6A4232",
"Q c #4D3931",
"! c #543E34",
"~ c #7E5C4D",
"^ c #45342B",
"/ c #D49A78",
"( c #D69C7B",
") c #E5B494",
"_ c #D29776",
"` c #6F5145",
"' c #554743",
"] c #BDA895",
/* pixels */
"EEy]))))))))p)ppppppppppppppppppppppppppppppppppppppppppppJjtEE7",
"Ey])RRRsssssssssssRsRsssRssssssssssRRRRRRRRRRRsssYssYsssssY;~tE7",
"y]pY*********qqqqqqqqqqqqqqqq***qYssssssssYYYq**X**X**X*X***0~t7",
"]pY***********qq*q*q****X,l~`````~~L,;************X**X***XXX*0l7",
"pY***0llllllllllllllll~`I'giyyyitg8>''`~llllllllllllll~ll,XXXXl7",
"Jq**l`ao$$OMM+M.MM.MO@udbbjdt899998gtt69-oOMMMM+M.M.MOa<oUlXXXk7",
"(q*,yi43$ $@2@@@@@.3gbef8-O#      #$o2<u69-..@22222@+ci43#U0XXk7",
"(q*~65vm<#.@@@@@.@6vei-#%%             $.:ux3o+2@@@@.9=jm:$l*Xk7",
"Jq*`O=mey$o@@@@.ajei+ %    %%         # ##o5x<..2222.$3dei$B*Xk7",
"Jq*lo+mGy#.@@+.gef-    %%#O@=:a<<<53o$  ###$.<a+o232+$.yGyOPXXk7",
"Jq*;Z#3>+#3o++yv6$%  % o=4>88>>>8>>8>4:+# #$$O3<2O@22 $@9+U*XXk7",
"JqX;Z% %#:t$.db:     .a>>>a-.$$##$.3:au><2$#$OO+:2$>8#$#%&^qXXk7",
"JqX;UO@@.oOOyf2   %$<>84@$%&1&111&&&% .598x.#$Oo+52oO .@@oQqXXk7",
"JqX0U+@@@OOyf+    2969+ &&&&11111&&&&&&%O=>>-#Oo.+=+%O@@@+!qXXk7",
"JqX0U+@@+.yj2   #:883 &&&&&&11111&&&&&%%%%o485#O..2=.O@@@+!qXXk7",
"JqX0U+@@.6b=  %$x89.&&&&&&111111111&&&%%%  #:>5$o++3=oo@@@!qXXk7",
"JqX0U+@.4b9   #c8x#&&&&&11111111111&&&%%%   $59<$.+2-3$+@@!qXXk7",
"JqX0U++3ft#   atx#&&&&&11111111111&&&%%%   ##$5>=$+235+O@+!qXXk7",
"Jq;,U+.gf.  %364#&%%&&11111&&%%%   %%%   ##$$$O:92O33-=O.+!qXXk7",
"Jq;,U.=fx  %.>u$&%%%&&111&%%&& ##  #$####$$$$O$.axo+--52$+!qXXk7",
"Jq;,Uogy$  #x8.&%%%&&11&%&%+6jwhwbi5O$OO$$OOOOoo394$3-==oo!YXXk7",
"Jq;,U3ma  %=8=%%%%&%&&%%%-vNSSSnnnGCvc...o.ooooO.<>+.=5:2#!YXXk7",
"Jq;,Z9yO  Ox9#%%%%%%%%%#dGKSSSnnnGGGNHd3@@.....o.29:#-5:=$QYXXk7",
"Jq;,Uyu   -x+%%%%%%%% $eKKKSSSnnnGGNNCHb:32.+@++++=9++:::.^Y;;k7",
"Jq;,4d2  $99#%% %%%% $wVVKKSSSnnnGGNCHHzb:=3+23322245$:<<3Uq;Xk7",
"J*;L6i$  385%%  %  ##fVVVKKKSSnnnGNNCHzzDd::333---2:4$=aa5@,;;k7",
"JX;~t>   a9o%  %   #4SVVVVKKSSnnGGNCHHzDAw8a:--=-=3=co244<.FX;B7",
"(X;`i:  $ca %     #$hVVVVVVKnHwvvwHCHzDAhwmx4===555-42oxx4+W;;B7",
"(X;Ii2  o>5%%    ##<nKVVVVVGzzAvdg6vzDhhweb8><55:::-a<Ox9x2Q;;B7",
"(X0Ito  +u3%    ###mSSKKVVnCSnCwft4:jhweevvt6c::<<:=4c$auu3U0;B7",
"(X0'g$  3u.  ####$OhnnSSKSznVSCwmg4@5vevvvbyt6<<<4a=<cOa>>=Z,;B7",
"/X,'6$# =uo  ##$$O@znnnnSChNnGzvd8:.#ivbbjjyyi4cccc<<>.<885ZP;B7",
"/X,'8$# 48O ##$$OO-HGNGGGevDzDeftc-O%9jffmmiddccuuc<<c.<66:ZP0B7",
"/X,'8$##a9$ #$$$Oo-zNNNCNjdjbjmt><+#%<ddddyifmuuu>u44>.agg:ZP0B7",
"/X,'8$# 2cO#$$OOo.3hCHHHHmugtt6u<3O %attiiiibfu>>88c4co9it5ZP0B7",
"/X0'8O# 3>o#$OOOo.@vHzzDDb5a44<=@O &oau>866yem>688644>.8yi=U,0B7",
"/X0I8.##2u+#$OOoo+@dDDAhhec.@@+o$ & =:accuufwy866g6ac>otdi3^00B7",
"/X;I>+$#+u3#OOo...3uwhhwwef3### %& =5=:a448ewtgggg6495oydi+!0,B7",
"/X;`9-$$O4:$Oo...+-5jwwevbjy5#%% o=====:<<fzvttigt64u3-mmgoW0,F7",
"/X;Fa:$$$4cOO.++.+-58eevbjfdiu<===--=====gzHfddyii8ccO9ff9ok0,F7",
"/X;k=aO$#59@O.+++23<4ybbjmdig6>c<=-=-=--4DGwymmddy68aOyjf5Z00,F7",
"/X;LZa+O$+x5O.+++22:9uyfmdytg8uc<5===--<hnCebjmymm9>-5jbd+UX0,F7",
"/X0LM5-OO$ax..++233-x66idytg68uca5==-34DSGwevvjfby>uOtvvg$UX0,F7",
"/X0LM+:.o$2u<.+23-3-58iittg66>uca:=3=yNKnhAwwvbjf6u23beb: ^X0,F7",
"/X;LZO52ooO<u3+2---5-46dfmyg>uc4<:4yzKVnAwhwwewjy>a$ywed. ^*;,F7",
"/X;LZo+5+.O29<22-5=5:<<>mewwevbvwzGKVSCwhDhhhewfg>-:ewex#$Q*;,F7",
"/X;LZ+O-3+.O-x<3=55<<ac4udeDCNGnSSSnNzhAzhhhwwv66-Obhhd. .QX;,F7",
"/X;LZ@o.=2++O<x:==5<aaccu8ymbeADDDAAzzDADhwheei69$yAAe<#O+QX;,F7",
"_X;PZ@@O2=22+.:x<5:<a4444u6yidfmjwAhzDzzhwewjy8>o>ADAtO#++QX;,F7",
"_X;PZ@@+O3-22+.<xa<a444cu8giyifjeeAhhAADAeeji6u+xAzDf@ o@+QX;,F7",
"_X;PZ@@@.O--33+.:xa4449>>6ttydmbwvhhzAAAevfguaO4AHze5#$+@+QX;,F7",
"_X;PZ@2@@OO-=--3O+444c9>66ttddjveeeAzhDwvy8>a$6zCHw4##.@@+QX;,F7",
"_X;PZ+2@@+.o-5555oo:xcu>66gdddjbewwhwejmg8c3.mCCCh9$#$@@@+QX;0B7",
"_X;,M ..oag#o=::<a3O24uuuu8tiimfjjjfig6u42$5eNNChx#3u#o.o ^X;0B7",
"_X;,Zu:$#o+ #o-<ax942$.a8>>>66g68666>>u-$+dHNNNe<# O+#ca$ ^X00B7",
"_X;L6g65$ #O@OO3<x9>89-OO2:xuuu>9u9a2O$=dDNNNCf3##oO :gu:$Z,00B7",
"_X;F23jm<#.@@@o$@:986gtgu:@oOOO$$$$o:ivzCNNCw8o $.@@.@2jf4$B;0B7",
"_X;F$-fDg#.@@@@.$O3a>gtiydddiittymbwDHCCCCwt2# O+@@@.$@dzd$F;0B7",
"_X;PZ.yA5 .++++++O#O2<>tydmfjbvewhDzHHHAb82$ #o+++++O OtH6MP00B7",
"R;;;BZO.Z!IIIIIIIIITO$.-46imfbvewwhwvm65o##MQIIIIIII!QUo.MF00,W7",
"~L00;PFFPXXXXXX;;;;LWTM$$o+-:x9>>9a-+O##MT!F,;;;;;;;X;,FFL00,W^7",
"t~L0000;000,0,,,,,,,,PBWTZM$########OMTrWBP,,P,,,,,,,,,000,,W^67",
"Et~LPPPPPPPLLLLkLkkkkkkBFWWrTTZZZTTrrWWFBkkkkkkkkBkBBBBBkLLW^6E7",
"EEE~WrrrrrrrrrrrrrrrrrrrrrrrrrTTTTTrrrrrrrrrrrrrrrrrrrrrrrr^6EE7"
};
